<?xml version="1.0" standalone="no"?>
<!DOCTYPE svg PUBLIC "-//W3C//DTD SVG 20010904//EN"
 "http://www.w3.org/TR/2001/REC-SVG-20010904/DTD/svg10.dtd">
<svg version="1.0" xmlns="http://www.w3.org/2000/svg"
 width="770.000000pt" height="769.000000pt" viewBox="0 0 770.000000 769.000000"
 preserveAspectRatio="xMidYMid meet">

<g transform="translate(0.000000,769.000000) scale(0.100000,-0.100000)"
fill="#000000" stroke="none">
<path d="M3820 7381 c0 -5 10 -11 21 -13 41 -6 43 -25 30 -229 -7 -107 -17
-204 -22 -216 -6 -16 -17 -23 -34 -23 -14 0 -25 -4 -25 -9 0 -10 123 -21 234
-21 123 1 187 34 232 121 33 67 40 134 19 205 -36 126 -103 169 -287 184 -143
12 -168 12 -168 1z m275 -61 c8 -7 23 -31 35 -55 46 -95 15 -302 -52 -349 -29
-20 -87 -21 -94 -1 -6 16 13 350 22 399 6 26 9 28 41 23 19 -3 41 -11 48 -17z"/>
<path d="M4495 7306 l30 -24 -50 -203 c-28 -111 -56 -209 -64 -216 -8 -9 -23
-12 -37 -9 -13 4 -24 2 -24 -4 0 -5 12 -12 28 -16 15 -3 104 -26 197 -50 94
-23 173 -40 176 -36 13 14 61 143 55 149 -6 6 -45 -36 -46 -49 0 -3 -19 -16
-43 -27 -39 -19 -49 -20 -100 -10 -31 7 -61 17 -66 23 -10 12 24 174 39 190 5
5 20 -3 34 -17 19 -19 26 -36 26 -66 0 -48 17 -63 26 -24 3 15 17 72 30 126
28 113 27 107 14 107 -5 0 -10 -5 -10 -12 0 -6 -11 -26 -26 -45 -18 -24 -33
-33 -55 -33 -32 0 -35 11 -20 70 6 19 15 54 21 78 12 48 19 50 92 22 60 -22
88 -58 88 -111 0 -20 4 -29 9 -23 9 9 44 135 39 140 -5 5 -364 94 -378 94 -9
0 -3 -10 15 -24z"/>
<path d="M3090 7301 c-152 -50 -220 -192 -166 -348 20 -61 94 -134 153 -154
58 -19 165 -5 226 29 100 57 143 193 98 314 -43 112 -105 160 -216 164 -38 2
-81 0 -95 -5z m95 -43 c78 -35 138 -285 91 -380 -22 -46 -69 -65 -119 -49 -85
28 -158 268 -113 375 25 60 81 81 141 54z"/>
<path d="M2481 7104 c-102 -41 -187 -76 -189 -79 -6 -6 42 -135 50 -135 5 0 8
19 8 43 0 23 7 53 16 65 15 21 72 57 80 50 10 -11 154 -380 154 -397 0 -11
-10 -27 -22 -35 -44 -31 -8 -25 100 16 108 42 142 66 85 60 -16 -2 -34 3 -40
10 -8 10 -107 249 -159 383 -6 15 62 38 89 30 12 -4 37 -21 55 -38 39 -37 42
-23 11 52 -14 33 -27 51 -38 50 -9 0 -99 -34 -200 -75z"/>
<path d="M5300 7055 l24 -26 -32 -62 c-17 -34 -63 -120 -101 -192 l-69 -130
-36 2 c-20 1 -36 -1 -36 -5 0 -4 64 -40 143 -80 116 -59 150 -72 188 -72 63 0
109 32 129 89 14 41 14 44 -13 92 l-27 49 30 0 c70 0 110 43 110 118 0 65 -36
98 -211 191 -107 57 -135 64 -99 26z m171 -114 c36 -36 38 -75 6 -122 -18 -28
-30 -35 -62 -37 -22 -2 -48 3 -57 10 -17 12 -15 19 25 95 23 46 46 83 50 83 5
0 22 -13 38 -29z m-103 -200 c23 -22 32 -39 32 -61 0 -63 -48 -120 -103 -120
-33 0 -67 16 -67 31 0 15 90 179 99 179 3 0 21 -13 39 -29z"/>
<path d="M2043 6887 c-56 -34 -102 -65 -103 -68 0 -4 17 -6 37 -5 l37 1 107
-175 c59 -96 108 -181 108 -189 1 -8 -9 -25 -21 -38 -12 -13 -16 -23 -10 -23
14 0 212 122 212 131 0 4 -17 6 -37 5 l-37 -1 -108 179 c-59 98 -108 182 -108
187 0 5 9 17 20 26 20 18 26 33 13 32 -5 0 -54 -28 -110 -62z"/>
<path d="M1788 6715 c-2 -22 -11 -30 -48 -42 -95 -32 -173 -116 -186 -200 -16
-107 15 -194 92 -262 90 -79 193 -88 300 -25 91 53 155 185 109 224 -15 13
-16 10 -30 -70 -10 -58 -77 -120 -129 -120 -111 1 -256 162 -256 283 0 74 64
137 139 137 19 0 54 -10 78 -21 24 -12 46 -19 49 -17 5 6 -93 131 -106 136 -5
2 -10 -9 -12 -23z"/>
<path d="M5786 6685 c-98 -35 -179 -154 -179 -261 1 -102 55 -181 158 -230
102 -49 214 -20 296 75 53 62 67 98 68 176 1 83 -24 133 -94 188 -84 66 -163
83 -249 52z m229 -80 c45 -45 29 -142 -38 -230 -73 -95 -137 -145 -187 -145
-35 0 -76 27 -90 59 -31 76 47 226 164 312 52 38 116 40 151 4z"/>
<path d="M3530 6644 c-209 -25 -446 -81 -655 -155 -134 -48 -396 -177 -525
-259 -687 -439 -1144 -1119 -1279 -1905 -31 -183 -41 -298 -41 -492 0 -342 66
-701 187 -1013 55 -143 183 -392 270 -525 382 -583 981 -1014 1645 -1184 268
-68 450 -92 713 -92 459 -1 870 95 1270 296 1076 541 1683 1673 1540 2871 -38
310 -118 586 -254 869 -177 369 -413 674 -721 934 -441 372 -940 588 -1517
656 -158 18 -475 18 -633 -1z m601 -34 c503 -50 991 -240 1394 -543 538 -405
914 -993 1054 -1647 41 -193 54 -336 55 -575 1 -254 -13 -386 -65 -625 -169
-772 -702 -1470 -1401 -1835 -307 -160 -551 -243 -865 -294 -669 -109 -1351
28 -1934 389 -308 191 -629 506 -846 830 -211 315 -361 702 -425 1100 -20 127
-23 180 -23 430 0 291 5 346 51 580 58 290 194 624 366 899 215 345 567 692
909 898 353 213 759 350 1159 392 122 12 450 13 571 1z"/>
<path d="M3430 5767 c-52 -50 -158 -150 -235 -222 -77 -71 -222 -208 -323
-304 l-183 -173 -48 33 c-88 62 -203 172 -189 180 16 11 -26 50 -74 70 -26 11
-32 11 -36 0 -3 -8 -13 -22 -23 -32 -15 -15 -17 -24 -9 -44 5 -14 7 -32 3 -41
-4 -11 2 -23 18 -36 28 -22 85 -48 105 -48 12 0 110 -63 179 -116 23 -17 58
21 -309 -333 l-170 -163 167 -161 c92 -89 167 -166 167 -172 0 -8 -147 -152
-297 -293 -18 -16 -33 -35 -33 -42 0 -6 28 -37 62 -68 133 -121 268 -256 268
-267 0 -6 -62 -69 -137 -140 -75 -72 -148 -142 -161 -157 -14 -16 -31 -28 -38
-28 -24 0 -27 23 -6 41 33 26 27 39 -18 39 -55 0 -86 -31 -95 -96 -13 -97 -15
-104 -39 -104 -45 0 -76 67 -54 115 8 19 50 49 91 67 24 10 21 30 -8 58 -23
22 -23 24 -10 57 8 20 28 51 45 69 34 39 41 71 13 59 -10 -4 -29 -10 -43 -13
-56 -11 -94 -72 -95 -152 0 -51 -2 -55 -23 -53 -28 3 -83 43 -76 55 3 4 1 8
-5 8 -5 0 -13 -4 -16 -10 -3 -5 -14 -10 -23 -10 -16 1 -16 1 1 11 9 5 17 15
17 22 0 7 18 27 39 45 22 19 37 40 35 47 -3 8 11 22 37 36 32 19 48 36 66 77
17 40 31 57 54 65 18 7 28 18 27 27 -5 22 -91 19 -116 -3 -23 -21 -49 -79 -57
-129 -4 -27 -11 -38 -24 -38 -25 0 -73 54 -75 84 -1 29 -7 31 -36 14 -26 -16
-36 -4 -22 27 7 16 20 25 34 25 54 0 104 23 146 67 24 25 68 55 98 69 40 18
54 29 54 44 0 45 -47 36 -151 -32 -45 -29 -61 -45 -65 -68 -8 -38 -18 -38 -61
0 -18 17 -38 30 -44 30 -6 0 -7 5 -3 11 4 8 9 7 15 -2 7 -11 9 -11 9 2 0 25
-12 30 -32 12 -32 -29 -32 -5 2 46 31 49 68 71 121 71 18 0 49 27 92 79 21 25
41 36 80 45 60 13 69 35 20 49 -25 8 -41 5 -78 -13 -46 -22 -109 -77 -130
-112 -9 -15 -15 -14 -57 15 -26 17 -49 40 -52 50 -3 11 8 46 25 78 16 32 29
65 29 73 0 8 38 53 84 100 80 81 116 141 101 166 -9 15 -37 12 -63 -6 -28 -20
-74 -108 -66 -128 4 -11 0 -16 -13 -16 -27 0 -43 19 -43 52 0 34 -10 35 -39 4
-22 -23 -22 -27 -10 -82 10 -45 10 -59 1 -62 -7 -2 -12 -14 -12 -26 0 -13 -9
-31 -20 -41 -19 -17 -20 -17 -25 1 -14 45 -33 70 -70 91 -44 25 -62 28 -85 13
-12 -7 -6 -18 35 -58 64 -63 114 -135 122 -175 3 -18 14 -47 25 -65 28 -47 18
-58 -21 -22 -44 38 -51 38 -44 -3 3 -23 -1 -39 -15 -56 -25 -32 -48 -22 -71
31 -30 69 -62 93 -128 93 -33 0 -58 -5 -60 -11 -2 -7 15 -23 39 -37 24 -14 60
-46 81 -71 27 -32 58 -55 103 -76 35 -16 64 -33 64 -38 0 -5 11 -22 25 -38 27
-31 31 -44 15 -44 -5 0 -10 4 -10 8 0 7 -19 20 -63 40 -5 3 -4 -5 2 -16 6 -11
9 -27 7 -34 -2 -7 -7 -25 -10 -40 -4 -16 -13 -28 -20 -28 -8 0 -49 34 -91 75
-79 78 -91 83 -164 69 -38 -8 -40 -20 -5 -28 14 -4 57 -36 94 -71 38 -36 97
-83 132 -106 35 -23 52 -38 38 -34 -24 8 -24 7 -7 -18 23 -35 22 -80 -3 -102
-19 -17 -21 -16 -78 42 -69 73 -123 95 -172 72 l-30 -14 66 -50 c104 -78 183
-123 228 -130 76 -12 176 -49 176 -65 0 -5 -19 -6 -41 -3 -39 6 -41 5 -30 -15
15 -28 14 -64 -2 -86 -13 -18 -17 -17 -78 17 -106 58 -169 61 -169 7 0 -24 5
-29 33 -35 17 -4 40 -15 49 -25 19 -20 95 -48 177 -64 71 -14 96 -44 80 -98
-11 -43 -32 -49 -71 -19 -31 25 -130 53 -154 45 -23 -8 -54 -34 -54 -44 0 -4
17 -11 38 -15 20 -4 46 -15 58 -26 12 -11 60 -29 110 -40 49 -12 94 -23 101
-25 22 -6 45 -53 39 -79 -7 -26 -42 -35 -62 -15 -6 6 -37 15 -69 20 -49 8 -65
7 -102 -10 -53 -23 -58 -50 -9 -50 43 0 66 -9 66 -24 0 -15 175 -40 213 -31
16 4 32 2 42 -7 71 -58 72 -73 9 -82 -26 -3 -71 -6 -101 -6 -45 0 -58 -4 -78
-26 -33 -35 -23 -46 32 -38 40 6 44 5 41 -12 -3 -17 4 -19 72 -17 47 1 97 9
134 22 77 27 96 27 61 -1 l-28 -22 33 -11 c39 -13 74 -54 65 -76 -4 -11 -32
-20 -93 -29 -126 -19 -172 -47 -172 -105 0 -20 9 -19 45 5 37 25 44 25 38 1
-7 -28 9 -32 63 -17 27 8 68 17 90 21 27 4 51 17 70 36 21 22 37 29 65 29 43
0 89 -32 89 -62 0 -18 -4 -20 -42 -14 -53 8 -140 -16 -168 -46 -20 -22 -46
-86 -37 -94 2 -2 17 2 33 11 38 20 44 19 44 -5 0 -24 6 -24 78 -4 74 21 109
39 155 80 45 41 95 46 128 13 29 -29 21 -51 -21 -54 -47 -3 -145 -50 -170 -82
-34 -44 -21 -87 19 -61 17 10 22 8 40 -13 l20 -24 64 33 c35 18 88 55 116 82
50 47 77 58 64 25 -3 -10 1 -15 11 -15 15 0 15 -3 1 -36 -8 -20 -15 -47 -15
-60 0 -14 -6 -24 -14 -24 -16 0 -46 -37 -46 -57 0 -18 20 -16 41 3 17 15 18
13 24 -23 13 -81 18 -100 41 -172 13 -40 24 -81 24 -91 0 -24 29 -80 42 -80 6
0 26 -13 45 -30 18 -16 40 -30 48 -30 8 0 32 24 54 54 48 64 82 77 137 51 19
-9 50 -19 69 -22 47 -8 53 14 20 71 -31 53 -66 143 -68 171 -1 41 5 100 9 89
3 -8 20 -4 52 12 26 13 58 24 71 24 24 0 168 -22 259 -39 32 -6 42 -5 42 5 0
16 51 44 79 44 11 0 36 8 56 17 31 15 43 15 93 5 69 -14 230 -15 287 -2 31 7
58 4 122 -13 46 -12 83 -24 83 -28 0 -5 -54 -57 -283 -278 -42 -41 -76 -79
-74 -85 6 -19 44 -18 67 1 13 10 85 79 162 153 161 156 197 180 277 180 31 0
103 11 160 25 57 14 106 23 110 20 14 -14 -90 -266 -126 -307 -30 -34 -4 -41
70 -21 12 3 17 -1 17 -16 0 -27 22 -27 79 -1 24 11 51 20 61 20 19 0 54 -52
75 -110 11 -31 16 -35 49 -36 28 -1 41 4 51 20 22 35 80 238 106 371 10 52 18
66 55 99 42 38 55 68 34 81 -6 4 -5 13 2 25 9 14 9 22 -1 33 -10 13 -9 18 9
27 33 17 91 14 137 -9 62 -31 97 -26 148 19 11 10 40 29 65 43 96 51 110 63
130 104 10 23 24 44 30 48 17 11 11 63 -9 77 -20 14 -20 14 0 26 27 17 24 40
-7 48 l-27 7 39 24 c32 20 48 23 87 19 56 -6 81 2 122 39 17 14 48 35 71 46
43 21 123 110 125 138 1 15 5 50 10 81 1 8 1 30 1 47 -2 26 -7 34 -28 39 -18
5 -22 10 -15 17 6 6 11 21 11 34 0 26 -18 30 -53 12 -15 -8 -10 1 15 26 30 31
45 39 87 43 64 6 86 28 84 85 0 23 -4 56 -8 72 -11 48 -10 53 24 203 39 173
58 220 104 258 32 26 35 34 34 79 0 28 7 64 16 81 18 34 21 136 5 166 -5 11
-5 26 2 38 9 17 7 22 -12 30 -45 18 -61 37 -54 64 7 28 -10 44 -27 27 -18 -18
-26 -13 -29 21 -4 45 -25 46 -44 3 -13 -31 -17 -35 -30 -24 -20 17 -11 52 27
103 32 44 36 77 14 120 -8 15 -15 32 -15 37 0 21 -49 59 -77 59 -17 0 -36 7
-43 15 -13 16 -65 10 -90 -10 -8 -7 -26 -15 -40 -17 -22 -3 -25 -9 -28 -47 -2
-30 2 -49 14 -62 16 -18 16 -19 -4 -19 -11 0 -24 5 -28 11 -3 6 -19 16 -34 23
-33 14 -690 652 -690 670 0 7 38 47 83 89 46 42 125 117 176 166 82 80 96 90
120 85 28 -6 29 -6 24 37 -5 47 -18 69 -38 69 -6 0 -20 16 -31 35 -25 47 -69
56 -112 25 -17 -12 -32 -35 -35 -49 -4 -16 -22 -40 -44 -57 -21 -15 -98 -79
-172 -142 l-134 -113 -33 32 c-18 17 -37 30 -42 28 -5 -2 -69 -60 -141 -129
-73 -69 -139 -128 -146 -133 -8 -4 -23 -21 -35 -37 -20 -28 -20 -31 -5 -61 9
-17 13 -34 8 -38 -30 -26 -92 -71 -97 -71 -15 0 -4 19 14 25 58 18 72 126 24
176 -24 25 -35 29 -82 29 -50 0 -58 -3 -93 -39 -32 -32 -39 -46 -39 -78 0 -25
8 -50 20 -66 25 -32 25 -40 -8 -107 -25 -50 -30 -55 -57 -51 -37 4 -45 15 -45
67 0 34 7 49 35 80 29 32 35 47 35 85 0 58 -30 89 -93 96 -39 5 -48 1 -80 -27
-48 -42 -54 -67 -27 -120 26 -50 22 -96 -11 -163 -32 -65 -83 -136 -96 -137
-27 0 -25 24 5 49 49 41 72 89 72 148 0 43 -3 53 -20 58 -23 7 -21 23 12 88
11 22 16 47 13 58 -10 31 -76 58 -150 62 -52 3 -70 8 -77 22 -7 12 -7 20 3 25
10 7 10 12 1 23 -10 12 -9 16 3 21 8 3 22 3 31 -1 10 -4 17 1 21 16 3 11 11
21 18 21 7 0 15 5 17 11 7 21 78 38 134 32 30 -3 54 -2 55 3 3 39 6 55 10 59
3 2 32 7 65 11 64 8 78 18 61 45 -8 13 -14 15 -24 7 -19 -15 -30 -1 -16 21 9
14 8 22 -5 35 -16 16 -16 18 1 31 14 10 16 20 11 41 -6 26 -5 27 8 16 21 -17
32 0 23 36 -9 37 -31 59 -71 72 -22 8 -34 18 -34 30 0 10 -11 31 -24 47 -21
25 -24 36 -19 72 8 59 -19 80 -98 81 -106 0 -273 -44 -286 -75 -6 -18 -23 -20
-23 -2 0 16 -176 187 -193 187 -6 0 -55 -42 -107 -93z m250 -77 c0 -5 -2 -10
-4 -10 -3 0 -8 5 -11 10 -3 6 -1 10 4 10 6 0 11 -4 11 -10z m415 -70 c0 -7 -6
-15 -12 -17 -8 -3 -13 4 -13 17 0 13 5 20 13 18 6 -3 12 -11 12 -18z m-655
-18 c74 0 125 -4 139 -12 13 -8 11 -9 -11 -10 -14 0 -28 -4 -30 -9 -6 -16 -86
-20 -99 -5 -6 8 -28 14 -48 14 -20 0 -50 4 -66 8 -40 12 -52 6 -72 -31 -9 -18
-18 -27 -20 -20 -3 7 6 26 19 43 23 31 23 31 98 26 41 -2 82 -5 90 -4z m693
-159 c2 -10 4 -43 3 -73 -1 -50 -3 -55 -23 -54 -31 1 -29 -14 2 -26 14 -5 25
-14 25 -20 0 -18 -26 -11 -54 15 -15 14 -31 25 -35 25 -4 0 -16 9 -26 20 -10
11 -13 20 -7 20 7 0 12 7 12 15 0 15 76 95 91 95 4 0 10 -8 12 -17z m1266 -70
c-7 -10 -32 -35 -58 -57 -25 -21 -66 -55 -91 -76 -128 -108 -180 -147 -180
-132 0 5 21 27 48 48 26 21 49 41 52 44 11 12 234 190 237 190 2 0 -2 -8 -8
-17z m73 -30 c-25 -34 -278 -286 -311 -309 -19 -14 -25 -14 -32 -3 -18 29 -7
54 43 101 29 26 55 48 59 48 4 0 9 4 11 8 2 4 35 33 73 63 39 31 76 63 84 72
7 9 16 15 20 13 4 -3 18 4 31 15 36 27 45 23 22 -8z m-1402 -149 c0 -2 -12 -4
-27 -4 -21 0 -24 3 -14 9 13 8 41 5 41 -5z m-320 -60 c10 -24 14 -144 6 -144
-2 0 -32 29 -67 65 -34 36 -69 65 -77 65 -25 0 -3 14 41 26 70 19 86 17 97
-12z m-1165 -43 c-6 -5 -25 10 -25 20 0 5 6 4 14 -3 8 -7 12 -15 11 -17z m952
13 c-3 -3 -12 -4 -19 -1 -8 3 -5 6 6 6 11 1 17 -2 13 -5z m1343 -164 c12 -7
12 -14 2 -44 -17 -47 3 -88 50 -103 l33 -11 -35 -1 c-46 -2 -62 -13 -58 -42 3
-21 8 -24 46 -22 23 1 42 -3 42 -8 0 -12 -13 -17 -87 -34 -32 -7 -67 -16 -79
-20 -17 -5 -22 0 -33 35 -8 27 -34 66 -72 106 -32 35 -59 70 -59 78 0 32 13
46 41 46 26 0 29 -3 23 -25 -7 -26 7 -33 29 -15 81 68 120 83 157 60z m-1217
-11 c48 -22 61 -88 25 -126 -43 -46 -138 -17 -153 48 -5 21 0 34 22 58 30 33
64 39 106 20z m239 -36 c4 -63 -5 -132 -15 -116 -12 19 -45 152 -39 158 3 3
15 5 28 5 19 0 23 -6 26 -47z m103 35 c6 -16 -48 -151 -62 -155 -11 -4 -24
130 -15 155 2 6 20 12 38 12 19 0 37 -6 39 -12z m525 -8 c20 -20 28 -83 12
-106 -11 -17 -75 -54 -93 -54 -9 0 -31 13 -48 29 -47 44 -40 105 17 135 39 22
88 20 112 -4z m-1428 -31 c21 -22 43 -37 48 -34 16 10 12 45 -5 45 -17 0 -20
16 -5 25 19 11 50 -15 50 -42 0 -19 -14 -41 -49 -74 -28 -26 -62 -71 -76 -99
l-26 -52 -47 7 c-84 11 -88 14 -52 36 41 25 37 53 -8 57 -40 4 -41 18 -2 26
36 7 61 55 53 100 -7 33 8 46 51 46 21 0 40 -11 68 -41z m323 35 c21 -9 45
-56 45 -92 0 -37 -28 -63 -79 -72 -52 -9 -93 10 -115 56 -16 34 -16 37 4 69
11 19 26 36 33 39 18 7 93 7 112 0z m864 -25 c18 -33 8 -73 -29 -110 -25 -26
-31 -28 -59 -18 -66 23 -90 92 -49 136 19 20 31 23 72 21 42 -3 53 -7 65 -29z
m-452 -54 c17 -80 4 -110 -21 -51 -9 20 -23 52 -31 71 -14 31 -13 35 3 44 28
17 35 8 49 -64z m222 61 c10 -12 7 -27 -16 -72 -29 -60 -49 -69 -46 -20 1 32
32 106 43 106 4 0 13 -6 19 -14z m-1109 -14 c48 -39 -8 -110 -65 -84 -30 14
-34 56 -8 84 21 23 45 23 73 0z m2044 3 c34 -35 -27 -98 -69 -71 -24 16 -31
51 -15 72 16 19 65 18 84 -1z m-1814 -106 c0 -6 -16 -29 -35 -52 -47 -54 -45
-78 11 -140 52 -58 68 -92 78 -164 5 -43 4 -53 -8 -53 -9 0 -17 15 -21 40 -9
54 -47 123 -95 174 -22 22 -40 46 -40 53 0 22 24 68 58 111 33 41 52 53 52 31z
m1515 -33 c20 -24 40 -58 45 -76 8 -29 5 -37 -43 -97 -28 -36 -61 -88 -74
-114 -20 -44 -43 -65 -43 -39 0 23 55 118 97 167 35 42 43 58 37 75 -8 29 -65
108 -76 108 -4 0 -8 5 -8 10 0 23 31 7 65 -34z m-26 -40 c12 -18 21 -42 21
-53 0 -18 -48 -73 -63 -73 -4 0 -25 11 -47 25 l-40 25 21 43 c40 77 49 88 69
77 10 -5 28 -25 39 -44z m-1427 17 c15 -16 32 -41 38 -58 11 -28 9 -32 -25
-63 l-37 -34 -39 38 c-21 21 -39 45 -39 54 0 16 56 90 69 90 4 0 19 -12 33
-27z m-308 -4 c-7 -12 -54 -12 -54 0 0 5 6 11 13 14 18 6 48 -4 41 -14z m726
6 c0 -15 -43 -12 -48 3 -3 10 4 13 22 10 15 -2 26 -7 26 -13z m-210 -9 c0 -16
-45 -30 -62 -20 -7 5 -5 12 7 21 24 17 55 17 55 -1z m615 4 c4 -6 3 -30 0 -53
-15 -86 -121 -146 -207 -118 -61 20 -130 116 -114 157 5 13 16 15 59 10 28 -3
75 -7 104 -9 29 -2 55 -6 59 -9 3 -4 -3 -19 -15 -34 -11 -15 -21 -37 -21 -50
0 -17 -6 -24 -20 -24 -17 0 -20 7 -20 39 0 33 -4 40 -29 51 -40 16 -65 9 -69
-18 -4 -29 14 -52 40 -52 11 0 22 -9 25 -20 4 -16 14 -20 49 -20 37 0 44 3 44
20 0 19 11 24 65 32 29 5 31 43 4 62 -19 13 -20 18 -9 31 14 17 46 20 55 5z
m163 -13 c3 -15 -2 -18 -25 -15 -17 2 -29 10 -31 21 -3 15 2 18 25 15 17 -2
29 -10 31 -21z m235 16 c10 -10 -13 -33 -34 -33 -21 0 -33 15 -24 30 7 11 48
14 58 3z m-738 -50 c4 -20 15 -54 26 -75 21 -41 24 -58 9 -58 -13 0 -46 79
-55 129 -9 52 10 56 20 4z m-35 -40 c7 -21 23 -58 36 -82 28 -51 28 -51 10
-51 -8 0 -25 19 -38 43 -29 52 -61 58 -66 12 -9 -93 -30 -34 -24 67 3 43 8 58
20 61 28 6 50 -11 62 -50z m-209 10 c5 -16 24 -56 41 -90 18 -34 29 -66 24
-70 -4 -4 -24 12 -44 36 -31 36 -42 42 -60 37 -19 -6 -22 -15 -22 -57 0 -48
-12 -65 -24 -33 -3 9 -6 55 -6 104 0 94 2 98 53 99 21 1 30 -5 38 -26z m737
15 c6 -7 11 -48 11 -90 1 -63 -2 -78 -14 -78 -10 0 -15 10 -15 28 0 69 -51 79
-84 17 -19 -34 -36 -46 -36 -25 0 14 36 86 63 127 23 34 56 43 75 21z m200 6
c20 -6 22 -11 16 -33 -4 -14 -10 -55 -13 -90 -7 -70 -29 -97 -29 -35 0 62 -46
65 -77 4 -9 -17 -20 -30 -25 -30 -15 0 -13 6 30 78 23 37 43 77 46 90 6 23 14
26 52 16z m-568 -14 c0 -5 -7 -10 -15 -10 -8 0 -15 5 -15 10 0 6 7 10 15 10 8
0 15 -4 15 -10z m158 -1 c-2 -6 -8 -10 -13 -10 -5 0 -11 4 -13 10 -2 6 4 11
13 11 9 0 15 -5 13 -11z m837 -30 c4 -6 -3 -21 -14 -33 -12 -13 -24 -41 -28
-62 -3 -21 -13 -47 -21 -57 -19 -21 -142 -91 -149 -84 -10 11 66 153 99 184
30 29 84 63 100 63 4 0 10 -5 13 -11z m-271 -41 c19 -13 35 -27 35 -33 1 -5
-13 -34 -30 -63 -25 -45 -33 -52 -52 -47 -30 10 -48 35 -41 59 14 52 37 106
45 106 4 0 23 -10 43 -22z m396 7 c35 -18 50 -43 50 -82 -1 -38 -21 -62 -63
-74 -43 -12 -77 0 -106 37 -24 30 -26 55 -9 87 25 48 74 60 128 32z m-2036
-11 c12 -3 30 -18 40 -35 16 -27 16 -31 1 -63 -27 -56 -52 -76 -94 -76 -44 0
-76 28 -91 80 -8 28 -6 37 16 66 24 31 60 46 92 37 8 -2 24 -6 36 -9z m1537
-17 c-8 -8 -11 -7 -11 4 0 20 13 34 18 19 3 -7 -1 -17 -7 -23z m-1158 -4 c8
-16 17 -48 20 -72 5 -37 2 -47 -18 -67 -33 -33 -55 -31 -55 5 0 20 8 35 23 46
19 13 20 17 7 25 -8 5 -20 10 -26 10 -17 0 -34 24 -26 36 6 9 53 44 59 44 1 0
9 -12 16 -27z m267 -9 c0 -8 -4 -14 -10 -14 -5 0 -10 9 -10 21 0 11 5 17 10
14 6 -3 10 -13 10 -21z m110 -31 c0 -18 -29 -16 -36 2 -4 8 -3 23 1 33 6 16 7
16 21 -2 8 -11 14 -26 14 -33z m480 7 c0 -25 -4 -30 -25 -30 -29 0 -30 3 -9
35 22 33 34 31 34 -5z m-692 -2 c17 -17 15 -45 -4 -52 -24 -9 -24 -9 -24 29 0
37 8 43 28 23z m432 -8 c0 -5 -4 -10 -10 -10 -5 0 -10 5 -10 10 0 6 5 10 10
10 6 0 10 -4 10 -10z m446 -27 c-11 -11 -19 6 -11 24 8 17 8 17 12 0 3 -10 2
-21 -1 -24z m-222 -11 c3 -5 45 -12 93 -16 236 -17 265 -23 315 -57 14 -11 31
-19 36 -19 20 0 80 -81 92 -125 8 -28 10 -65 5 -100 -6 -55 -7 -55 -41 -55
-38 0 -38 -1 -24 34 12 32 4 74 -20 106 -26 35 -35 18 -16 -30 12 -31 14 -46
6 -61 -6 -11 -10 -34 -8 -52 3 -30 6 -32 40 -32 21 -1 42 -5 48 -11 12 -12
-19 -215 -34 -226 -5 -3 -23 0 -39 9 -27 13 -29 18 -23 53 3 21 9 45 12 54 3
9 1 16 -5 16 -15 0 -33 -69 -29 -115 3 -36 6 -40 41 -48 34 -8 37 -12 37 -45
0 -21 -9 -66 -20 -102 -11 -36 -20 -74 -20 -85 -1 -39 -13 -47 -48 -29 -26 13
-32 21 -32 47 1 18 7 49 14 70 8 20 10 40 5 43 -9 5 -33 -45 -50 -109 -10 -38
-9 -43 13 -60 12 -11 35 -24 51 -29 32 -12 35 -35 8 -94 -31 -69 -80 -100
-224 -140 -13 -4 -21 4 -31 28 -15 35 -7 58 21 58 18 0 90 36 98 50 14 23 -8
29 -48 11 -23 -10 -59 -26 -81 -35 l-39 -17 6 -60 c5 -57 4 -59 -21 -66 -15
-4 -69 -7 -120 -8 l-94 0 -3 43 c-3 38 -1 44 21 53 14 5 36 9 48 9 24 0 53 25
39 33 -4 3 -37 -1 -73 -7 l-65 -12 -3 -63 -3 -62 -32 3 c-30 3 -32 5 -35 50
-2 25 -8 51 -15 56 -7 5 -43 12 -80 16 -54 5 -68 4 -65 -6 3 -7 22 -16 44 -21
21 -4 49 -10 62 -13 17 -3 22 -11 22 -38 0 -19 -6 -36 -12 -39 -7 -2 -42 0
-78 5 -102 15 -114 16 -133 17 -15 1 -17 9 -15 63 l3 61 -65 17 c-36 9 -76 22
-88 29 -26 14 -38 9 -27 -9 9 -14 109 -60 130 -60 18 0 19 -30 2 -54 -12 -16
-16 -16 -57 -2 -25 9 -53 16 -62 16 -10 0 -41 11 -70 23 -43 19 -57 32 -75 68
-11 24 -24 58 -28 75 -6 30 -4 32 36 48 35 14 40 20 35 39 -3 12 -11 50 -17
85 -6 34 -15 62 -19 62 -13 0 -18 -52 -8 -81 5 -15 8 -40 6 -56 -4 -37 -39
-43 -60 -11 -17 25 -52 227 -42 237 3 3 22 11 42 17 34 9 37 13 36 45 0 18 -4
51 -8 72 -9 48 -33 45 -27 -4 9 -76 8 -84 -21 -87 -19 -2 -30 3 -37 17 -12 22
-40 209 -33 216 3 3 19 5 36 5 46 0 54 10 57 65 4 63 -20 70 -37 10 -9 -34
-15 -40 -35 -37 -34 4 -46 19 -33 40 6 9 8 26 5 37 -18 56 22 123 95 158 30
15 58 27 62 27 4 0 16 -16 27 -35 17 -32 22 -35 49 -29 17 3 46 13 65 20 18 8
42 14 53 14 11 0 18 5 15 13 -5 14 -43 11 -101 -9 -37 -13 -42 -13 -53 3 -16
21 -16 38 0 51 22 18 173 53 213 50 36 -3 39 -6 44 -37 6 -41 22 -48 97 -41
68 6 70 25 3 26 -67 1 -70 2 -70 29 0 17 7 29 23 35 28 11 434 13 441 2z
m-1107 -28 c2 -5 -7 -22 -20 -38 -19 -24 -25 -26 -35 -13 -10 11 -8 19 9 41
20 26 39 30 46 10z m1818 -24 c10 -11 15 -23 12 -27 -8 -7 -47 25 -47 39 0 14
16 9 35 -12z m-1716 -44 c53 -35 40 -46 -19 -16 -23 12 -44 19 -47 16 -10 -10
9 -26 55 -47 31 -15 41 -23 30 -26 -21 -5 -128 46 -128 62 0 19 40 56 53 49 7
-4 32 -21 56 -38z m1676 14 c16 -18 17 -22 4 -34 -23 -23 -88 -56 -109 -56
-34 0 -22 17 25 37 25 10 45 24 45 31 0 15 -6 15 -33 -2 -32 -20 -67 -29 -67
-17 0 12 79 59 101 60 9 1 24 -8 34 -19z m178 -51 c54 -27 72 -84 41 -127 -37
-54 -123 -46 -151 13 -22 46 -11 80 35 104 44 24 47 24 75 10z m-2034 -43 c34
-36 38 -87 10 -118 -35 -37 -84 -51 -118 -33 -41 20 -52 39 -54 86 -2 38 2 45
32 66 46 31 100 31 130 -1z m3014 -37 c15 -7 29 -25 35 -47 15 -48 9 -51 -17
-7 -11 19 -27 38 -36 41 -8 4 -15 10 -15 15 0 12 4 11 33 -2z m-2939 -74 c-4
-8 -10 -15 -15 -15 -11 0 -12 53 -2 64 10 10 24 -31 17 -49z m1774 21 c7 -18
10 -40 7 -48 -6 -14 -66 -48 -85 -48 -21 0 -9 18 20 30 38 16 44 25 30 50 -8
15 -18 18 -43 15 -32 -5 -32 -5 8 15 22 11 42 20 45 20 4 0 11 -15 18 -34z
m50 10 c12 -28 5 -41 -15 -25 -14 13 -18 49 -5 49 5 0 14 -11 20 -24z m-1715
-3 c18 -11 -6 -22 -29 -13 -55 21 -63 -31 -9 -57 19 -9 35 -20 35 -25 0 -12
-6 -10 -50 12 -30 15 -40 27 -40 44 0 48 10 58 49 51 20 -4 39 -9 44 -12z
m2942 6 c4 -6 13 -8 21 -5 17 7 29 -34 21 -74 -5 -22 0 -36 17 -57 26 -33 39
-63 26 -63 -5 0 -12 5 -16 11 -4 8 -9 7 -16 -2 -7 -10 -8 -8 -3 8 8 30 -10 38
-28 12 l-15 -21 -12 23 c-11 20 -13 20 -22 5 -5 -9 -13 -14 -17 -12 -9 6 -14
162 -6 176 8 13 42 13 50 -1z m-1325 -48 c0 -10 -30 -24 -37 -17 -3 3 -2 9 2
15 8 13 35 15 35 2z m1167 -43 c13 -12 23 -27 23 -34 0 -6 7 -25 15 -40 8 -16
15 -39 15 -52 0 -13 4 -21 8 -18 5 3 6 -8 4 -25 -4 -28 -22 -52 -22 -30 0 6
-4 11 -10 11 -5 0 -10 -7 -10 -15 0 -29 -26 -15 -43 24 -9 21 -27 46 -40 57
-12 10 -16 12 -9 4 6 -8 12 -21 12 -29 0 -11 -5 -9 -16 7 -8 12 -13 26 -10 31
3 5 -1 26 -10 47 -16 38 -16 39 11 61 33 29 52 29 82 1z m-1181 -97 c-9 -14
-33 -14 -41 -1 -4 6 -1 18 6 26 11 13 14 13 27 0 8 -8 11 -19 8 -25z m-1708
17 c18 -18 14 -62 -8 -91 -12 -15 -20 -40 -20 -64 0 -22 -6 -46 -12 -55 -19
-23 -87 -43 -101 -29 -7 7 -6 12 6 16 9 3 24 7 33 10 9 3 14 14 12 27 -3 20
-11 24 -52 28 -58 6 -69 23 -28 44 17 9 35 29 41 47 11 31 12 32 61 25 40 -5
50 -4 50 8 0 8 -5 18 -10 21 -11 7 -4 25 9 25 4 0 12 -5 19 -12z m1799 -6
c-31 -34 -22 -45 29 -38 51 7 74 -4 74 -35 0 -9 14 -27 30 -39 33 -23 42 -57
13 -45 -39 17 -70 17 -87 0 -22 -23 -17 -36 23 -57 18 -9 28 -19 23 -22 -12
-7 -104 21 -113 35 -3 6 -4 30 -2 53 4 31 -1 54 -16 84 -12 23 -21 43 -21 46
0 11 33 36 47 36 14 0 14 -2 0 -18z m-1957 -27 c14 -17 5 -51 -16 -59 -19 -7
-50 8 -58 30 -14 37 47 61 74 29z m1990 5 c0 -5 -4 -10 -10 -10 -5 0 -10 5
-10 10 0 6 5 10 10 10 6 0 10 -4 10 -10z m158 -12 c29 -29 0 -78 -36 -59 -29
15 -36 43 -16 58 22 16 37 16 52 1z m-1863 -60 c4 -29 12 -64 17 -77 5 -15 5
-28 -1 -34 -13 -13 -36 43 -45 111 -5 42 -4 52 8 52 10 0 16 -17 21 -52z
m1616 28 c13 -27 -3 -66 -26 -66 -16 0 -19 28 -9 68 8 29 22 28 35 -2z m-1673
-24 c3 -25 0 -31 -12 -26 -10 4 -16 18 -16 36 0 40 24 32 28 -10z m1606 -34
c-7 -75 -18 -104 -30 -75 -8 22 15 147 28 147 5 0 7 -29 2 -72z m-1644 2 c0
-13 10 -24 25 -30 34 -13 31 -30 -5 -31 -16 -1 -36 -2 -42 -3 -13 -1 -15 42
-4 71 8 20 26 15 26 -7z m3060 -18 c0 -4 -9 -13 -20 -20 -22 -13 -27 -3 -8 16
14 14 28 16 28 4z m-230 -10 c0 -4 -8 -12 -18 -18 -15 -10 -18 -8 -18 7 0 12
7 19 18 19 10 0 18 -3 18 -8z m-1100 -22 c0 -28 -28 -37 -48 -16 -15 15 -15
18 -2 26 26 17 50 12 50 -10z m-1880 -10 c0 -5 -16 -10 -35 -10 -19 0 -35 5
-35 10 0 6 16 10 35 10 19 0 35 -4 35 -10z m2045 0 c18 -8 17 -9 -7 -9 -15 -1
-30 4 -33 9 -7 12 12 12 40 0z m1195 -11 c0 -6 -4 -7 -10 -4 -5 3 -10 11 -10
16 0 6 5 7 10 4 6 -3 10 -11 10 -16z m-1332 -46 c37 -6 38 -10 13 -40 l-19
-23 -54 28 c-42 21 -52 30 -44 40 7 7 23 10 41 6 17 -3 45 -8 63 -11z m-1623
-43 c-3 -5 -20 -13 -38 -18 -22 -6 -33 -15 -35 -30 -3 -20 1 -22 37 -22 22 0
43 -4 46 -10 4 -6 -17 -10 -54 -10 -65 0 -62 -2 -65 57 -1 10 12 21 34 29 43
15 83 18 75 4z m1540 -17 c37 -17 44 -38 25 -74 -9 -15 -22 -19 -65 -19 -30 0
-55 5 -55 10 0 6 13 10 29 10 16 0 34 7 41 15 15 18 6 45 -13 45 -8 0 -20 7
-27 15 -10 13 -9 15 8 15 12 0 37 -8 57 -17z m-1760 -7 c39 -17 51 -46 41
-101 -7 -38 -45 -65 -88 -65 -35 0 -87 36 -94 65 -13 51 35 113 89 115 10 0
33 -6 52 -14z m225 -16 c0 -5 -7 -10 -15 -10 -8 0 -18 0 -22 -1 -4 0 -9 4 -11
10 -2 6 8 11 22 11 14 0 26 -4 26 -10z m1763 -1 c35 -16 46 -47 33 -86 -21
-61 -80 -81 -129 -43 -39 31 -43 56 -13 101 28 42 60 50 109 28z m-1893 -35
c0 -13 -4 -24 -9 -24 -10 0 -21 47 -13 54 10 11 22 -6 22 -30z m1618 19 c2 -8
-5 -13 -17 -13 -12 0 -21 6 -21 16 0 18 31 15 38 -3z m129 -33 c-11 -30 -37
-42 -37 -17 0 19 30 58 40 52 4 -3 3 -19 -3 -35z m1170 -95 c7 -50 8 -84 2
-89 -6 -6 -9 -6 -9 2 0 7 -4 12 -10 12 -5 0 -10 -7 -10 -15 0 -20 -29 -19 -37
0 -5 14 -8 14 -24 -1 -22 -20 -25 -13 -7 16 10 15 10 29 0 65 -16 61 -16 62
16 79 54 29 65 19 79 -69z m40 53 c-3 -8 -6 -5 -6 6 -1 11 2 17 5 13 3 -3 4
-12 1 -19z m-1360 -14 c-3 -3 -12 -4 -19 -1 -8 3 -5 6 6 6 11 1 17 -2 13 -5z
m1525 -17 c10 -15 1 -58 -23 -115 -11 -24 -19 -51 -19 -61 0 -9 -6 -26 -14
-37 -14 -18 -15 -18 -24 5 -6 16 -11 20 -16 13 -14 -23 -24 -12 -35 38 -10 46
-9 52 14 86 14 20 25 44 25 53 0 28 22 43 55 37 16 -4 33 -12 37 -19z m-2962
-56 c0 -5 -15 -18 -34 -29 -27 -16 -33 -25 -29 -41 4 -18 13 -21 54 -21 60 0
64 -15 6 -23 -24 -3 -50 -9 -59 -12 -12 -5 -21 2 -32 24 -23 44 -20 53 27 83
43 28 67 35 67 19z m1442 -36 c52 -33 52 -33 38 -69 -9 -24 -15 -26 -65 -26
-43 0 -55 3 -55 16 0 12 9 15 42 12 56 -4 62 20 13 53 -19 13 -35 30 -35 37 0
16 1 16 62 -23z m-1422 -25 c-20 -13 -50 -13 -50 0 0 6 10 15 23 19 27 11 49
-5 27 -19z m-246 0 c30 -11 56 -57 56 -98 0 -42 -32 -67 -87 -67 -37 0 -49 5
-70 29 -20 23 -24 37 -19 64 6 40 29 69 60 75 11 2 24 5 28 6 4 0 18 -3 32 -9z
m1636 -5 c7 -9 11 -18 8 -21 -9 -9 -59 16 -53 26 9 15 31 12 45 -5z m-2962
-18 c7 -5 11 -12 8 -14 -5 -5 -66 25 -66 33 0 7 42 -6 58 -19z m1422 4 c15
-28 12 -51 -5 -51 -8 0 -15 6 -15 13 0 6 -3 22 -6 35 -8 27 11 30 26 3z m1840
-3 c42 -46 23 -118 -36 -132 -37 -10 -91 20 -103 56 -14 40 -16 36 20 69 39
36 89 39 119 7z m-159 -1 c-2 -29 -15 -57 -27 -57 -17 0 -18 24 -3 51 10 19
31 23 30 6z m1134 -55 c-12 -13 -24 22 -12 37 10 12 13 11 15 -8 2 -13 1 -26
-3 -29z m-851 -4 c48 -13 69 -28 41 -28 -23 0 -91 23 -101 33 -11 10 14 8 60
-5z m-376 -24 c39 -5 64 -15 90 -38 46 -38 142 -137 142 -146 0 -4 -9 -15 -20
-25 -19 -17 -21 -17 -33 -2 -6 10 -27 25 -46 35 -35 18 -56 48 -66 94 -4 19
-14 30 -32 34 -21 6 -32 1 -54 -24 l-27 -31 -46 41 c-25 23 -46 45 -46 50 0
13 42 28 65 23 11 -2 44 -7 73 -11z m371 -29 c16 -8 31 -21 34 -28 3 -8 18
-17 34 -20 15 -3 39 -15 53 -27 14 -12 49 -38 78 -57 29 -20 50 -38 47 -41 -6
-7 -75 30 -75 40 0 4 -28 22 -62 39 -35 17 -77 42 -95 55 -17 13 -36 24 -41
24 -5 0 -15 7 -22 15 -10 12 -9 15 4 15 9 0 30 -7 45 -15z m81 -5 c0 -5 -7
-10 -15 -10 -8 0 -15 5 -15 10 0 6 7 10 15 10 8 0 15 -4 15 -10z m830 -18
c-25 -4 -35 2 -26 17 5 7 13 7 27 -2 20 -12 20 -12 -1 -15z m-914 -34 c17 -13
50 -38 74 -55 24 -18 53 -33 64 -33 31 0 70 -30 57 -43 -15 -15 16 -47 46 -47
13 0 23 -6 23 -14 0 -15 67 -62 76 -53 3 2 -9 17 -27 31 -17 15 -29 30 -25 33
9 10 56 -15 56 -29 0 -7 7 -26 15 -42 22 -41 13 -57 -27 -50 -45 8 -78 25 -78
41 0 17 5 16 36 -3 22 -15 24 -15 18 -1 -3 9 -15 19 -26 23 -11 3 -38 22 -60
42 -32 29 -41 33 -48 21 -7 -11 -22 0 -67 48 -32 33 -71 68 -88 77 -40 21
-117 91 -109 99 8 7 46 -12 90 -45z m-1697 31 c17 -6 31 -14 31 -19 0 -10 -91
-80 -105 -80 -17 0 -35 22 -35 42 0 20 11 23 27 7 14 -14 53 -2 53 17 0 8 -10
14 -22 14 -22 1 -23 1 -4 15 24 18 16 17 55 4z m1206 -25 l39 -36 -24 -19
c-32 -24 -33 -24 -81 8 l-41 27 34 28 c18 15 33 28 34 28 0 0 18 -16 39 -36z
m1270 26 c3 -5 2 -10 -4 -10 -5 0 -13 5 -16 10 -3 6 -2 10 4 10 5 0 13 -4 16
-10z m-2667 -22 c7 -7 12 -31 12 -54 0 -25 6 -49 16 -58 24 -24 14 -50 -21
-54 -17 -2 -40 -13 -52 -24 -18 -16 -25 -18 -36 -9 -29 23 13 141 50 141 18 0
17 25 -2 40 -16 13 -11 30 9 30 6 0 17 -5 24 -12z m1794 5 c2 -5 28 -29 58
-54 30 -26 76 -66 102 -90 26 -24 66 -59 88 -78 66 -55 39 -47 -49 15 -44 31
-90 72 -101 91 -11 19 -25 31 -30 28 -6 -4 -21 4 -33 17 -31 32 -59 78 -48 78
5 0 11 -3 13 -7z m-246 -28 c-5 -20 0 -31 26 -54 33 -29 33 -30 16 -58 -10
-17 -15 -39 -11 -51 6 -26 -11 -29 -33 -7 -9 8 -23 15 -31 15 -13 0 -12 -5 7
-25 37 -39 14 -43 -26 -4 -54 52 -57 62 -32 106 52 90 98 133 84 78z m222 -21
c-4 -3 -12 5 -18 18 -12 22 -12 22 6 6 10 -10 15 -20 12 -24z m-1418 -14 c0
-28 23 -35 53 -15 14 9 28 12 30 8 8 -12 -4 -28 -30 -42 -39 -20 -91 16 -77
54 9 22 24 18 24 -5z m40 0 c0 -5 -4 -10 -10 -10 -5 0 -10 5 -10 10 0 6 5 10
10 10 6 0 10 -4 10 -10z m923 -28 c45 -26 86 -63 137 -122 40 -47 78 -88 84
-92 7 -5 -12 -31 -51 -70 -35 -35 -63 -68 -63 -74 0 -6 77 -84 171 -174 l171
-164 -84 -80 c-173 -168 -211 -196 -264 -196 -13 0 -32 -4 -42 -10 -21 -12
-211 -58 -274 -66 -25 -4 -63 -3 -83 0 l-36 7 22 39 c12 21 62 71 113 111 134
108 306 270 306 289 0 18 -48 114 -106 208 l-38 64 -51 -6 c-88 -11 -279 -26
-322 -26 -34 0 -43 4 -43 18 0 13 -2 14 -9 4 -6 -10 -11 -6 -19 17 -8 24 -8
32 2 38 8 5 17 26 20 49 6 35 3 45 -17 70 -18 22 -22 32 -13 41 6 6 22 25 35
42 28 38 44 39 59 6 16 -34 15 -56 -3 -79 -30 -40 -6 -120 40 -132 41 -10 92
5 115 33 24 31 25 58 5 97 -15 28 -21 127 -8 139 3 4 17 -9 31 -29 21 -31 22
-39 12 -64 -26 -62 14 -120 82 -120 74 0 117 92 66 140 -12 11 -26 20 -31 20
-10 0 -3 83 9 101 7 12 4 14 77 -29z m-1239 5 c15 -24 -2 -34 -19 -11 -8 10
-15 23 -15 27 0 13 22 3 34 -16z m1124 -8 c-16 -47 -88 -49 -88 -3 0 17 5 17
30 2 10 -7 23 -8 27 -4 4 5 2 11 -4 13 -22 8 -14 18 16 20 29 2 29 1 19 -28z
m252 17 c0 -16 -28 -42 -36 -33 -8 7 14 47 26 47 6 0 10 -6 10 -14z m-907 -56
c6 0 19 7 29 17 22 19 37 9 22 -15 -6 -10 -27 -18 -47 -20 -28 -2 -38 1 -47
18 -16 30 0 49 18 22 8 -12 19 -22 25 -22z m17 30 c0 -5 -4 -10 -10 -10 -5 0
-10 5 -10 10 0 6 5 10 10 10 6 0 10 -4 10 -10z m-90 -56 c0 -48 -9 -54 -40
-27 -25 22 -25 31 1 60 29 30 39 21 39 -33z m527 30 c-9 -9 -28 6 -21 18 4 6
10 6 17 -1 6 -6 8 -13 4 -17z m35 -26 c-5 -5 -25 -11 -45 -15 -33 -5 -37 -3
-43 21 -9 37 4 46 25 17 l18 -24 24 27 c24 27 24 27 27 6 2 -12 0 -26 -6 -32z
m-326 34 c6 -4 14 -17 18 -29 13 -41 55 -40 74 2 10 22 56 44 68 33 2 -3 -11
-21 -30 -41 -30 -32 -41 -37 -79 -37 -39 0 -48 4 -71 34 -14 19 -26 37 -26 40
0 8 33 7 46 -2z m74 -6 c0 -8 -4 -17 -9 -21 -12 -7 -24 12 -16 25 9 15 25 12
25 -4z m1418 2 c20 -20 14 -28 -13 -16 -13 6 -22 15 -19 19 7 12 18 11 32 -3z
m-2319 -17 c12 -21 5 -31 -20 -31 -24 0 -33 18 -19 35 17 20 27 19 39 -4z
m487 4 c18 -15 18 -15 -10 -13 -16 2 -31 9 -34 16 -5 17 20 15 44 -3z m1504
-11 c0 -16 -16 -19 -25 -4 -8 13 4 32 16 25 5 -4 9 -13 9 -21z m-205 2 c16
-12 17 -16 6 -30 -19 -22 -61 -21 -61 2 0 17 18 42 30 42 3 0 15 -6 25 -14z
m-487 -8 c-6 -18 -28 -21 -28 -4 0 9 7 16 16 16 9 0 14 -5 12 -12z m-2134 -38
c19 -17 36 -40 38 -52 2 -12 11 -22 21 -24 11 -1 20 -4 22 -6 2 -2 52 -48 111
-103 60 -55 150 -140 201 -190 93 -89 94 -90 77 -114 -14 -19 -23 -22 -52 -17
-19 3 -39 11 -43 18 -10 15 -39 -21 -51 -61 -11 -38 11 -109 44 -142 25 -24
28 -32 18 -44 -19 -23 -52 -17 -88 16 -29 26 -33 36 -31 72 4 65 -11 156 -28
166 -9 4 -17 28 -20 54 -6 54 -19 58 -51 16 -37 -46 -39 -96 -6 -169 31 -69
24 -86 -27 -68 -64 22 -75 89 -29 168 35 59 35 59 13 75 -14 11 -15 16 -3 44
15 37 10 46 -24 37 -16 -4 -32 -21 -46 -52 -19 -38 -22 -56 -16 -105 5 -51 3
-59 -11 -59 -25 0 -63 40 -63 66 0 39 16 67 65 116 34 34 46 53 43 70 -2 13
-9 22 -17 20 -10 -2 -11 7 -6 38 6 38 6 40 -19 40 -21 0 -30 -9 -50 -47 -13
-27 -27 -72 -31 -100 -6 -47 -10 -53 -30 -53 -28 0 -55 34 -55 68 0 28 27 82
40 82 6 0 29 12 51 27 42 28 69 68 69 103 0 17 -4 20 -21 15 -20 -7 -20 -6 -4
25 19 37 9 51 -29 42 -53 -12 -106 -90 -106 -156 0 -40 -22 -53 -55 -32 -27
18 -37 62 -22 96 7 14 35 40 62 57 28 18 52 39 54 46 7 22 34 47 52 47 10 0
34 -14 53 -30z m1311 18 c31 -14 41 -49 25 -88 -16 -39 -45 -47 -79 -23 -36
28 -41 85 -9 107 27 19 30 19 63 4z m2239 -8 c6 -6 2 -44 -8 -97 -13 -65 -23
-94 -41 -113 l-25 -25 0 25 c-1 23 -2 24 -14 8 -17 -23 -22 -23 -29 3 -8 31
-24 15 -30 -32 -3 -22 -7 -43 -10 -45 -2 -2 -21 11 -42 31 -22 19 -44 35 -50
35 -7 0 -10 17 -9 42 2 38 9 48 75 110 40 37 84 69 98 71 32 5 73 -1 85 -13z
m-2034 1 c0 -10 -40 -22 -52 -15 -18 11 -6 24 22 24 17 0 30 -4 30 -9z m2167
-26 c-6 -35 -6 -35 11 -15 20 25 44 19 67 -17 16 -24 15 -26 -10 -63 -34 -49
-65 -77 -90 -82 -16 -2 -19 2 -17 20 3 20 0 23 -17 17 -25 -8 -26 -2 -4 33 10
17 11 22 3 15 -28 -26 -43 -16 -36 25 11 60 35 85 95 101 2 1 1 -15 -2 -34z
m-1497 5 c52 -52 -13 -116 -81 -80 -27 15 -25 64 3 84 30 21 54 20 78 -4z
m-210 0 c0 -5 -11 -10 -25 -10 -14 0 -25 5 -25 10 0 6 11 10 25 10 14 0 25 -4
25 -10z m-1105 -30 c41 -43 26 -47 -21 -5 -25 21 -33 34 -23 35 8 0 28 -13 44
-30z m85 21 c0 -13 -29 -35 -37 -28 -7 8 15 37 28 37 5 0 9 -4 9 -9z m2260 -1
c0 -5 -2 -10 -4 -10 -3 0 -8 5 -11 10 -3 6 -1 10 4 10 6 0 11 -4 11 -10z
m-1682 -28 c30 -39 2 -102 -46 -102 -33 0 -72 37 -72 66 0 36 38 66 75 58 16
-3 36 -13 43 -22z m1040 6 c-7 -21 -55 -51 -69 -43 -9 6 -4 15 17 32 31 25 58
31 52 11z m-588 -8 c30 -16 34 -59 9 -86 -28 -30 -48 -30 -83 -3 -36 28 -34
80 4 90 37 10 49 10 70 -1z m-228 -27 c20 -18 24 -63 6 -81 -17 -17 -79 -15
-106 4 -31 22 -29 60 6 78 36 20 71 20 94 -1z m1238 -28 c11 -13 10 -14 -4 -9
-9 3 -16 10 -16 15 0 13 6 11 20 -6z m-1630 -10 c-7 -9 -15 -13 -17 -11 -7 7
7 26 19 26 6 0 6 -6 -2 -15z m1699 -4 c15 -11 20 -21 13 -25 -14 -8 -52 15
-52 31 0 18 11 16 39 -6z m95 -42 c-8 -14 -24 -10 -24 6 0 9 6 12 15 9 8 -4
12 -10 9 -15z m36 -94 c13 -15 10 -82 -5 -118 -5 -12 -3 -16 7 -12 15 6 68
-30 68 -45 0 -19 -106 -159 -128 -169 -32 -15 -34 -14 -27 12 6 18 5 20 -6 10
-34 -33 -39 1 -7 43 l23 29 -35 -29 c-19 -16 -39 -35 -43 -42 -11 -20 -21 -18
-56 12 -17 14 -36 24 -43 23 -19 -2 -58 12 -58 22 0 4 10 15 21 23 26 18 181
169 226 220 35 40 45 43 63 21z m-1935 -85 c293 -42 630 -52 875 -26 124 14
125 14 142 -7 10 -12 18 -27 18 -33 0 -30 -405 -54 -709 -42 -155 5 -474 46
-503 64 -4 3 2 19 15 35 20 28 26 30 62 24 22 -3 67 -10 100 -15z m2090 -159
c3 -5 -5 -17 -17 -25 -32 -23 -9 -20 30 4 43 26 50 25 58 -7 4 -16 11 -33 15
-39 12 -15 -105 -84 -142 -84 -29 0 -38 13 -19 25 16 10 12 28 -5 22 -30 -12
-24 13 7 30 25 13 29 18 16 21 -24 5 -23 12 9 39 29 25 39 28 48 14z m-466
-93 c1 -17 -11 -41 -29 -62 l-31 -34 26 -26 c14 -14 25 -32 25 -40 0 -32 -174
-134 -207 -122 -12 5 -13 9 -3 21 10 12 9 15 -9 15 -32 0 -25 14 20 39 22 13
38 25 36 27 -4 5 -17 -1 -117 -51 -52 -26 -47 -20 110 133 171 165 178 169
179 100z m-1457 -23 c28 -31 60 -68 71 -83 11 -15 43 -51 71 -79 27 -29 47
-55 43 -59 -7 -8 -132 97 -252 211 l-80 76 48 -5 c43 -5 54 -12 99 -61z m401
28 c9 -6 -66 -149 -96 -180 -11 -13 -26 -23 -33 -23 -6 0 -24 24 -39 53 -15
28 -43 73 -61 100 -19 26 -34 52 -34 58 0 9 35 10 127 4 70 -4 131 -9 136 -12z
m277 11 c0 -14 -266 -264 -282 -264 -25 0 -22 8 23 65 21 28 62 82 89 122 49
70 51 72 97 76 27 2 54 4 61 5 6 1 12 0 12 -4z m-1586 -68 c-6 -33 12 -106 26
-106 14 0 34 -80 23 -91 -17 -17 -80 15 -98 52 -23 43 -13 111 21 138 13 10
24 24 24 30 0 6 2 11 5 11 3 0 3 -15 -1 -34z m150 5 c14 -16 15 -23 5 -38 -18
-30 -3 -85 36 -130 46 -54 47 -77 3 -67 -44 9 -84 44 -80 70 2 11 -6 42 -18
68 -20 47 -26 97 -13 109 13 13 50 7 67 -12z m53 -83 c-3 -8 -6 -5 -6 6 -1 11
2 17 5 13 3 -3 4 -12 1 -19z m121 -44 c-3 -3 -2 -20 2 -39 12 -55 -34 -79 -57
-29 -11 23 -9 29 14 50 14 13 31 24 36 24 6 0 8 -2 5 -6z m2412 -77 c0 -13
-10 -32 -22 -43 -13 -10 -18 -12 -12 -4 6 8 10 24 8 34 -3 23 3 36 17 36 5 0
9 -11 9 -23z m-1809 -4 c12 -16 12 -17 -1 -7 -8 6 -22 14 -30 17 -13 5 -12 6
1 6 9 1 23 -7 30 -16z m1479 -13 c0 -9 -25 -20 -46 -20 -7 0 -11 6 -9 13 6 13
55 20 55 7z m-1186 -107 c-2 -60 -7 -132 -10 -161 -6 -53 -6 -53 -37 -50 l-32
3 3 145 c1 80 4 151 7 158 2 6 20 12 40 12 l35 0 -6 -107z m1240 72 c3 -8 3
-28 0 -44 -6 -26 -11 -30 -53 -36 -26 -3 -53 -10 -60 -14 -12 -8 -71 14 -71
26 0 3 8 12 18 19 16 13 16 13 0 14 -21 0 -24 18 -5 25 12 5 116 21 148 24 9
0 19 -6 23 -14z m-1999 -86 c170 -58 294 -86 418 -95 48 -4 87 -11 87 -15 0
-24 -198 -23 -307 1 -26 6 -70 15 -98 21 -51 11 -94 23 -200 58 -33 11 -84 26
-114 32 l-54 11 24 19 c38 29 85 23 244 -32z m1664 18 c15 -19 4 -27 -34 -27
-17 0 -58 -8 -91 -19 -134 -42 -174 -52 -338 -81 -83 -14 -269 -13 -284 2 -23
23 -11 28 66 28 109 0 271 33 442 90 68 23 222 27 239 7z m-1982 -155 c13 -8
42 -124 47 -187 3 -41 38 -129 56 -140 5 -3 10 -13 10 -21 0 -12 -3 -12 -21
-2 -18 11 -23 10 -43 -14 -12 -16 -25 -28 -28 -28 -9 0 -38 102 -48 165 -4 28
-13 85 -20 127 -7 43 -10 84 -6 93 6 16 33 20 53 7z m2026 -28 c-13 -135 -54
-328 -73 -348 -4 -4 -16 4 -26 19 -13 20 -23 25 -41 20 -12 -3 -23 -4 -23 -1
0 2 12 25 27 52 15 27 30 69 34 94 10 70 42 184 52 192 17 11 52 -9 50 -28z
m-1788 -16 c4 4 3 -2 -3 -13 -6 -11 -14 -29 -17 -40 -7 -18 -8 -18 -17 8 -13
35 -3 64 16 48 7 -6 16 -7 21 -3z"/>
<path d="M4777 4873 c-13 -12 -7 -51 8 -57 31 -12 67 27 50 54 -7 11 -48 14
-58 3z"/>
<path d="M3580 4880 c-15 -29 -4 -57 26 -64 29 -8 74 16 74 39 0 42 -80 62
-100 25z m60 -25 c0 -8 -7 -15 -15 -15 -8 0 -15 7 -15 15 0 8 7 15 15 15 8 0
15 -7 15 -15z"/>
<path d="M4430 4865 c-12 -23 -12 -28 8 -48 17 -17 26 -19 39 -11 45 28 40 76
-9 82 -17 2 -28 -4 -38 -23z"/>
<path d="M3025 4874 c-18 -18 -16 -33 7 -47 35 -22 66 21 36 51 -16 16 -23 15
-43 -4z m35 -24 c0 -5 -4 -10 -10 -10 -5 0 -10 5 -10 10 0 6 5 10 10 10 6 0
10 -4 10 -10z"/>
<path d="M3330 4865 c-19 -23 -4 -64 26 -71 19 -5 31 -1 47 14 18 18 19 25 9
47 -13 29 -61 35 -82 10z m58 -28 c2 -11 -3 -17 -17 -17 -23 0 -35 15 -26 31
10 15 39 6 43 -14z"/>
<path d="M4187 4873 c-14 -13 -6 -53 12 -63 29 -15 36 -13 51 15 11 20 11 27
0 40 -13 15 -51 20 -63 8z"/>
<path d="M2886 4863 c-4 -9 0 -23 9 -32 13 -14 17 -14 31 1 9 9 14 24 11 32
-8 21 -43 20 -51 -1z"/>
<path d="M4935 4870 c-4 -6 -3 -16 3 -22 6 -6 12 -6 17 2 4 6 3 16 -3 22 -6 6
-12 6 -17 -2z"/>
<path d="M4606 4685 c-21 -32 -20 -42 3 -55 15 -7 25 -5 42 9 22 18 22 19 6
45 -22 32 -30 33 -51 1z m34 -21 c0 -9 -5 -14 -12 -12 -18 6 -21 28 -4 28 9 0
16 -7 16 -16z"/>
<path d="M3181 4696 c-23 -42 24 -87 57 -54 17 17 15 44 -4 62 -22 22 -39 20
-53 -8z m44 -24 c0 -18 -20 -15 -23 4 -3 10 1 15 10 12 7 -3 13 -10 13 -16z"/>
<path d="M4530 4552 c0 -4 5 -13 12 -20 9 -9 8 -12 -5 -12 -9 0 -17 -7 -17
-15 0 -8 7 -15 15 -15 18 0 38 37 31 56 -6 15 -36 20 -36 6z"/>
<path d="M4906 4544 c-9 -8 -16 -19 -16 -24 0 -9 28 -40 36 -40 15 0 44 23 44
35 0 15 -26 45 -40 45 -5 0 -16 -7 -24 -16z"/>
<path d="M2858 4526 c-21 -15 -23 -37 -6 -54 31 -31 104 10 82 46 -14 22 -54
26 -76 8z m59 -22 c5 -15 -28 -27 -40 -15 -5 5 -6 14 -2 21 8 13 37 9 42 -6z"/>
<path d="M3270 4540 c0 -5 5 -10 10 -10 6 0 10 5 10 10 0 6 -4 10 -10 10 -5 0
-10 -4 -10 -10z"/>
<path d="M3758 4463 c-46 -7 -32 -21 20 -20 26 0 53 -3 60 -7 20 -12 14 -46
-10 -56 -33 -13 -174 -31 -192 -24 -8 3 -19 25 -24 47 -8 40 -10 42 -43 41
-45 -1 -149 -32 -149 -44 0 -12 36 -13 58 -1 9 5 35 11 56 12 36 4 40 2 47
-26 10 -35 4 -40 -71 -56 -30 -6 -72 -20 -92 -30 -50 -25 -54 -24 -74 16 -18
39 -23 41 -63 20 -45 -23 -81 -72 -81 -111 0 -19 5 -34 10 -34 11 0 32 45 27
58 -2 9 33 55 50 66 9 5 19 -5 30 -28 15 -33 15 -39 0 -88 -9 -29 -19 -71 -24
-93 -7 -37 -11 -40 -45 -43 -37 -3 -38 -4 -38 -45 0 -51 17 -117 31 -117 6 0
7 25 3 65 -7 65 -7 65 18 65 14 0 30 -6 35 -12 12 -16 33 -111 36 -162 2 -36
-1 -41 -38 -60 l-40 -21 3 -55 c4 -66 10 -90 23 -90 6 0 9 25 8 59 -2 61 10
91 38 91 13 0 53 -78 53 -105 0 -7 11 -22 25 -32 16 -12 26 -32 31 -59 6 -41
6 -41 -39 -62 -62 -29 -70 -47 -45 -95 21 -41 75 -73 145 -84 53 -9 34 10 -35
36 -98 35 -124 84 -58 107 38 14 40 13 67 -14 22 -23 47 -33 114 -47 l85 -18
0 -67 0 -68 68 -4 c68 -5 100 5 72 22 -8 5 -34 10 -57 10 -38 0 -42 3 -48 30
-4 16 -4 39 0 50 5 17 12 19 53 12 26 -4 94 -6 152 -4 58 2 137 4 175 5 l70 2
3 -42 3 -43 -61 0 c-53 0 -61 -2 -58 -17 3 -15 15 -18 78 -18 l75 0 1 55 c1
30 2 60 3 67 0 6 25 14 54 18 65 9 108 26 134 54 20 21 21 21 52 4 19 -11 31
-26 31 -39 0 -24 -35 -59 -70 -69 -46 -14 -83 -36 -73 -46 27 -27 161 53 174
105 8 30 -3 45 -75 101 -23 18 -25 25 -19 63 4 33 12 45 32 55 18 8 31 27 42
59 19 59 22 62 54 54 29 -7 32 -27 10 -79 -16 -39 -20 -97 -7 -97 8 0 17 27
44 139 9 39 8 46 -8 58 -10 7 -28 13 -40 13 -30 0 -34 17 -23 100 13 93 23
117 50 125 35 11 49 -15 37 -71 -11 -48 -4 -84 12 -68 6 6 11 46 12 89 3 86 6
81 -56 84 l-29 1 6 75 c7 81 0 112 -34 144 -20 19 -21 23 -9 46 7 14 17 25 22
25 21 0 81 -56 101 -94 19 -36 22 -38 25 -18 2 12 -6 38 -18 57 -26 42 -96 99
-114 92 -7 -3 -21 -21 -30 -41 -19 -39 -30 -43 -79 -23 -18 8 -61 19 -97 27
-76 15 -84 21 -75 49 5 17 14 21 50 21 24 0 56 -5 71 -10 17 -7 31 -7 37 -1
15 15 -22 28 -102 36 -79 8 -91 2 -91 -42 0 -12 -4 -24 -9 -28 -12 -7 -204 14
-214 24 -4 4 -3 20 2 34 10 25 15 27 66 27 30 0 55 5 55 10 0 15 -125 13 -138
-2 -6 -7 -12 -26 -14 -43 -3 -26 -7 -30 -33 -30 -27 0 -30 4 -33 33 -5 46 -38
58 -124 45z m397 -128 c219 -33 284 -52 333 -97 25 -25 29 -77 12 -200 -5 -40
-17 -129 -26 -198 -10 -69 -18 -134 -19 -144 -1 -11 -7 -22 -14 -24 -15 -5
-15 1 19 278 12 102 26 193 31 203 11 21 -23 72 -61 92 -39 19 -127 43 -215
56 -89 14 -409 18 -495 7 -30 -5 -74 -10 -97 -13 -98 -12 -190 -43 -222 -77
-47 -49 -60 -124 -15 -87 13 11 19 9 35 -11 23 -30 25 -83 3 -101 -19 -16 -30
-2 -40 49 -3 18 -10 35 -15 38 -18 11 -19 -23 -4 -91 8 -39 24 -119 35 -180
11 -60 22 -120 25 -132 4 -16 1 -23 -9 -23 -15 0 -25 40 -66 267 -26 139 -24
230 7 272 27 37 90 66 196 90 181 41 432 51 602 26z m0 -60 c179 -27 165 -21
165 -72 0 -27 7 -55 18 -71 41 -58 32 -123 -21 -168 -31 -26 -32 -29 -37 -128
-5 -99 -5 -101 -33 -110 -18 -7 -31 -6 -38 1 -6 6 -13 57 -16 114 l-6 104 -48
46 c-45 41 -49 49 -49 91 0 35 6 54 26 77 27 33 26 61 -2 61 -34 0 -104 -51
-124 -90 -22 -44 -26 -137 -9 -225 5 -27 12 -71 16 -97 l6 -48 -77 0 c-69 0
-77 2 -72 18 2 9 13 43 22 76 18 57 18 59 -2 75 -18 14 -20 25 -16 83 4 56 1
73 -19 108 -24 43 -62 70 -99 70 -25 0 -26 -20 0 -62 38 -63 22 -131 -41 -173
-25 -16 -39 -33 -40 -48 0 -12 -1 -57 -2 -99 -1 -42 -5 -79 -8 -82 -3 -3 -21
-1 -41 4 -31 9 -36 15 -42 48 -3 20 -6 68 -6 105 0 66 -1 69 -41 105 -25 23
-41 49 -43 65 -3 27 10 78 27 105 5 7 6 25 2 41 -8 40 8 49 111 62 239 30 401
35 539 14z m255 -67 c39 -27 49 -48 24 -48 -10 0 -25 -7 -35 -16 -16 -14 -19
-14 -37 4 -10 10 -18 30 -16 43 1 13 3 27 3 32 2 14 28 7 61 -15z m-936 -3 c7
-19 -4 -75 -14 -75 -4 0 -13 7 -20 15 -7 8 -19 15 -26 15 -22 0 -16 27 8 44
28 20 44 20 52 1z m624 -22 c-2 -5 -14 -29 -27 -54 -31 -60 -24 -84 39 -154
40 -45 50 -62 51 -93 0 -20 1 -91 2 -157 2 -121 7 -145 32 -145 7 0 23 -12 34
-26 18 -23 26 -25 56 -20 58 11 100 -31 62 -62 -47 -40 -505 -72 -602 -43 -16
6 -73 15 -125 21 -109 14 -130 22 -130 52 0 19 4 20 48 14 43 -5 51 -3 72 19
13 14 29 25 36 25 30 0 38 44 37 193 l-1 147 37 30 c46 36 70 93 65 154 -4 48
4 57 27 30 18 -21 16 -121 -5 -216 -19 -92 -21 -152 -3 -165 15 -11 177 -18
206 -8 38 12 41 36 19 121 -22 82 -30 225 -15 277 4 15 22 36 40 47 33 21 51
26 45 13z m355 -67 c3 -7 3 -32 0 -55 -7 -50 -30 -53 -49 -5 -11 26 -10 35 2
53 17 24 39 28 47 7z m-930 -168 c18 -21 21 -65 11 -130 -6 -37 -8 -38 -49
-38 l-42 0 -16 78 c-21 98 -21 97 5 122 20 19 23 19 47 4 14 -9 34 -25 44 -36z
m885 30 c12 -12 17 -135 6 -175 -4 -14 -16 -22 -37 -25 -18 -3 -40 -8 -49 -13
-16 -6 -18 0 -18 54 l0 61 28 -6 c42 -7 57 9 53 59 0 9 -8 17 -16 17 -11 0
-14 -7 -9 -25 8 -32 -20 -35 -37 -3 -10 19 -8 25 17 45 33 26 45 28 62 11z
m-866 -260 c14 -10 34 -18 45 -18 51 -1 63 -11 63 -56 0 -40 -4 -46 -37 -68
-26 -16 -53 -24 -85 -24 l-46 0 -13 51 c-12 49 -14 122 -3 138 6 10 45 -1 76
-23z m854 8 c3 -8 -2 -46 -12 -85 l-17 -71 -52 0 c-39 0 -56 5 -70 20 -10 11
-24 20 -32 20 -10 0 -13 10 -11 32 2 25 10 36 33 46 17 7 46 22 65 32 43 22
89 25 96 6z"/>
<path d="M3560 4130 c-57 -61 -30 -131 60 -151 50 -11 85 5 101 47 22 59 -21
119 -94 131 -32 5 -40 2 -67 -27z"/>
<path d="M4153 4139 c-34 -22 -38 -34 -27 -89 12 -56 101 -91 146 -56 10 7 22
25 28 40 37 98 -56 164 -147 105z"/>
<path d="M4220 3915 c0 -8 7 -15 15 -15 8 0 15 7 15 15 0 8 -7 15 -15 15 -8 0
-15 -7 -15 -15z"/>
<path d="M3594 3909 c-8 -14 11 -33 25 -25 6 4 11 11 11 16 0 13 -29 20 -36 9z"/>
<path d="M4230 3805 c0 -9 5 -15 11 -13 6 2 11 8 11 13 0 5 -5 11 -11 13 -6 2
-11 -4 -11 -13z"/>
<path d="M3600 3795 c0 -8 5 -15 10 -15 6 0 10 7 10 15 0 8 -4 15 -10 15 -5 0
-10 -7 -10 -15z"/>
<path d="M3870 3671 c-62 -19 -89 -41 -96 -76 -10 -53 1 -77 48 -108 38 -25
50 -28 109 -25 53 3 73 9 102 31 42 32 55 73 33 114 -27 53 -126 85 -196 64z
m125 -35 c97 -41 50 -146 -66 -146 -68 0 -109 17 -124 53 -18 43 -8 67 39 88
49 22 104 24 151 5z"/>
<path d="M3852 3610 c-19 -8 -23 -16 -20 -42 3 -30 7 -34 53 -45 62 -16 111
-3 127 33 9 20 8 28 -5 41 -19 20 -120 28 -155 13z"/>
<path d="M3452 3938 c-25 -25 -7 -68 29 -68 21 0 44 26 30 34 -5 4 -12 2 -16
-4 -10 -16 -25 -12 -25 6 0 9 8 23 18 30 16 13 16 13 -3 14 -12 0 -26 -5 -33
-12z"/>
<path d="M3520 3650 c-9 -17 -7 -22 15 -32 21 -9 29 -9 42 5 13 13 14 19 3 31
-17 22 -47 20 -60 -4z"/>
<path d="M4274 3655 c-4 -9 -2 -21 4 -27 15 -15 44 -1 40 19 -4 23 -36 29 -44
8z"/>
<path d="M4083 4433 c-47 -3 -63 -8 -63 -18 0 -11 12 -15 44 -15 24 0 58 -3
75 -6 28 -6 31 -4 31 20 0 15 -5 25 -12 24 -7 -1 -41 -3 -75 -5z"/>
<path d="M4448 4378 l-15 -23 -72 19 c-39 10 -74 16 -77 13 -11 -10 7 -27 28
-27 12 0 45 -8 75 -17 51 -16 54 -16 68 3 13 17 21 54 11 54 -2 0 -10 -10 -18
-22z"/>
<path d="M4920 4275 c-29 -35 19 -70 52 -38 18 19 18 21 3 37 -20 20 -39 21
-55 1z m37 -21 c-3 -3 -12 -4 -19 -1 -8 3 -5 6 6 6 11 1 17 -2 13 -5z"/>
<path d="M2863 4263 c-18 -7 -16 -43 2 -43 9 0 12 6 9 15 -4 10 0 15 11 15 11
0 15 -5 11 -15 -7 -19 8 -20 23 -2 20 25 -19 46 -56 30z"/>
<path d="M2920 3981 c-7 -15 -6 -24 6 -36 19 -18 33 -16 48 9 9 13 7 20 -8 32
-26 19 -33 18 -46 -5z"/>
<path d="M4857 3982 c-24 -5 -16 -26 11 -30 14 -2 22 2 22 12 0 18 -10 24 -33
18z"/>
<path d="M2830 3999 c0 -5 5 -7 10 -4 6 3 10 8 10 11 0 2 -4 4 -10 4 -5 0 -10
-5 -10 -11z"/>
<path d="M4985 3999 c-10 -15 3 -25 16 -12 7 7 7 13 1 17 -6 3 -14 1 -17 -5z"/>
<path d="M2900 3697 c-51 -26 -27 -90 27 -71 35 12 49 60 23 74 -23 12 -20 12
-50 -3z m40 -33 c0 -8 -9 -14 -20 -14 -19 0 -27 19 -14 33 10 9 34 -4 34 -19z"/>
<path d="M4900 3680 c0 -5 7 -10 15 -10 8 0 15 -7 15 -15 0 -18 -12 -19 -28
-3 -6 6 -15 9 -18 5 -9 -9 15 -37 32 -37 15 0 47 54 37 64 -10 10 -53 7 -53
-4z"/>
<path d="M2942 3428 c-18 -18 -14 -46 8 -58 44 -23 85 17 54 51 -20 22 -45 24
-62 7z m43 -18 c3 -5 -1 -10 -10 -10 -9 0 -13 5 -10 10 3 6 8 10 10 10 2 0 7
-4 10 -10z"/>
<path d="M4860 3432 c0 -5 10 -12 22 -16 18 -4 20 -8 11 -17 -9 -9 -15 -9 -27
0 -10 8 -16 9 -21 1 -18 -29 42 -43 66 -14 9 11 10 20 2 32 -11 19 -53 29 -53
14z"/>
<path d="M4527 3293 c-12 -12 -7 -31 10 -37 24 -9 39 9 23 29 -14 16 -23 19
-33 8z"/>
<path d="M3120 3205 c0 -9 5 -15 11 -13 6 2 11 8 11 13 0 5 -5 11 -11 13 -6 2
-11 -4 -11 -13z"/>
<path d="M4677 3203 c-13 -12 -7 -41 10 -47 18 -7 43 17 43 41 0 13 -41 18
-53 6z"/>
<path d="M3475 3090 c-11 -17 18 -42 39 -34 9 4 16 14 14 23 -4 19 -43 27 -53
11z m35 -20 c0 -5 -2 -10 -4 -10 -3 0 -8 5 -11 10 -3 6 -1 10 4 10 6 0 11 -4
11 -10z"/>
<path d="M5652 2980 c0 -14 2 -19 5 -12 2 6 2 18 0 25 -3 6 -5 1 -5 -13z"/>
<path d="M4330 3095 c-6 -8 -10 -22 -8 -32 4 -24 51 -29 69 -7 12 14 10 19
-10 35 -28 23 -35 23 -51 4z m40 -25 c0 -5 -2 -10 -4 -10 -3 0 -8 5 -11 10 -3
6 -1 10 4 10 6 0 11 -4 11 -10z"/>
<path d="M3662 3033 c4 -33 37 -43 57 -19 20 24 6 46 -29 46 -28 0 -31 -3 -28
-27z m38 -3 c0 -5 -4 -10 -10 -10 -5 0 -10 5 -10 10 0 6 5 10 10 10 6 0 10 -4
10 -10z"/>
<path d="M4142 3041 c-23 -14 -10 -46 18 -46 20 0 25 5 25 25 0 26 -20 36 -43
21z"/>
<path d="M3891 3021 c-23 -42 46 -71 72 -29 8 12 7 21 -2 32 -18 22 -58 20
-70 -3z m49 -21 c0 -5 -4 -10 -10 -10 -5 0 -10 5 -10 10 0 6 5 10 10 10 6 0
10 -4 10 -10z"/>
<path d="M2125 5450 c3 -5 8 -10 11 -10 2 0 4 5 4 10 0 6 -5 10 -11 10 -5 0
-7 -4 -4 -10z"/>
<path d="M2155 5441 c-3 -5 4 -12 15 -16 11 -3 27 -13 35 -21 16 -17 35 -11
35 12 0 8 -9 14 -21 14 -11 0 -29 5 -39 10 -11 6 -21 6 -25 1z"/>
<path d="M2250 5390 c-23 -18 -23 -20 -5 -20 11 0 26 9 33 20 15 25 4 25 -28
0z"/>
<path d="M2290 5375 c-14 -16 -10 -18 14 -9 9 3 16 10 16 15 0 14 -16 11 -30
-6z"/>
<path d="M4091 5114 c0 -11 3 -14 6 -6 3 7 2 16 -1 19 -3 4 -6 -2 -5 -13z"/>
<path d="M6348 6339 c33 -35 14 -60 -143 -201 -150 -135 -188 -158 -201 -123
-7 16 -24 21 -24 6 0 -5 48 -62 107 -127 59 -65 121 -132 137 -151 16 -18 36
-33 43 -33 8 0 36 18 64 40 28 22 58 44 67 49 34 19 0 24 -46 8 -80 -29 -108
-24 -163 32 -27 26 -49 53 -49 59 0 6 21 30 47 54 26 24 74 68 107 99 166 154
164 153 198 122 10 -9 21 -13 25 -10 7 8 -147 179 -168 185 -11 4 -12 2 -1 -9z"/>
<path d="M1234 6205 c-41 -24 -240 -252 -230 -263 3 -3 14 2 24 11 10 10 25
17 33 17 13 0 319 -257 334 -280 4 -6 0 -22 -9 -35 -33 -50 3 -32 47 23 25 31
59 72 77 91 34 37 33 51 -4 32 -31 -17 -33 -16 -110 48 -40 33 -62 59 -59 68
3 7 13 11 22 9 9 -3 70 -10 136 -17 l119 -12 48 54 c26 30 48 58 48 62 0 4
-16 5 -35 1 -19 -3 -82 0 -141 7 l-106 12 5 37 c10 80 -55 160 -130 160 -15 0
-46 -11 -69 -25z m31 -79 c50 -21 85 -63 85 -100 0 -29 -32 -96 -46 -96 -3 0
-41 30 -84 67 -77 65 -78 67 -62 89 14 18 59 53 70 54 1 0 18 -7 37 -14z"/>
<path d="M6720 5895 c0 -3 5 -14 12 -24 6 -10 9 -25 5 -33 -3 -9 -57 -49 -120
-91 -247 -163 -244 -162 -279 -130 -39 35 -25 3 40 -92 37 -54 74 -101 82
-103 12 -4 13 -2 3 9 -34 35 -17 54 147 163 206 137 203 136 236 105 40 -37
26 -6 -45 104 -54 83 -81 113 -81 92z"/>
<path d="M685 5773 c-11 -21 -21 -40 -22 -43 -2 -3 17 -28 41 -55 34 -38 47
-47 56 -39 9 9 6 31 -12 93 -12 44 -28 81 -34 81 -5 0 -19 -17 -29 -37z"/>
<path d="M789 5610 c-56 -94 -99 -174 -95 -177 4 -4 13 3 22 15 8 12 21 22 28
22 7 0 94 -49 192 -109 l179 -108 -2 -38 c-2 -22 1 -35 6 -29 4 5 54 85 111
179 l102 170 -38 33 c-89 77 -120 86 -74 22 33 -46 36 -107 8 -159 -38 -70
-44 -71 -137 -16 -80 47 -82 48 -64 67 15 17 27 19 76 15 63 -6 70 0 29 24
-15 9 -62 37 -105 64 -83 51 -108 53 -62 5 21 -21 29 -40 29 -65 0 -19 -2 -37
-5 -40 -5 -4 -141 71 -168 92 -8 6 34 74 61 100 28 27 63 33 111 20 15 -4 27
-3 27 2 0 9 -108 81 -122 81 -4 0 -53 -77 -109 -170z"/>
<path d="M6930 5559 c0 -26 -16 -46 -153 -192 -172 -183 -197 -211 -197 -220
0 -5 117 -5 260 -1 228 6 262 5 283 -9 14 -9 27 -14 30 -11 8 8 -54 144 -66
144 -5 0 -7 -14 -5 -31 4 -23 0 -33 -16 -41 -16 -9 -290 -29 -304 -23 -8 5
212 235 225 235 8 0 23 -10 34 -22 31 -38 22 -3 -25 97 -44 92 -66 117 -66 74z"/>
<path d="M620 5298 c-53 -126 -87 -219 -80 -223 4 -2 12 7 18 20 7 15 20 25
33 25 23 0 339 -124 377 -148 25 -16 29 -54 7 -72 -13 -11 -20 -9 -43 13 -34
32 -66 34 -85 6 -19 -26 -11 -56 19 -76 47 -31 132 9 160 75 22 52 14 127 -17
157 -13 13 -100 56 -193 94 -94 39 -173 76 -177 83 -4 7 -5 25 -2 40 7 34 -4
37 -17 6z"/>
<path d="M7190 4970 c0 -18 -7 -33 -17 -38 -10 -5 -105 -35 -212 -67 -184 -55
-195 -57 -207 -40 -7 10 -15 23 -17 29 -2 6 -7 8 -11 4 -10 -8 62 -238 74
-238 5 0 7 13 4 30 -5 24 -2 31 17 40 41 18 381 120 401 120 11 0 23 -11 30
-27 8 -20 12 -23 15 -12 2 8 -10 58 -27 109 -16 52 -30 100 -30 107 0 7 -4 13
-10 13 -5 0 -10 -13 -10 -30z"/>
<path d="M445 4809 c-2 -8 -23 -88 -45 -179 -22 -91 -43 -173 -46 -182 -8 -27
11 -21 24 7 6 14 20 25 30 25 23 0 369 -86 400 -100 16 -7 22 -18 22 -40 0
-16 3 -30 8 -30 7 0 107 399 101 404 -19 13 -141 57 -146 53 -3 -4 9 -18 26
-33 49 -41 64 -79 57 -140 -9 -76 -14 -84 -50 -83 -48 1 -159 33 -163 46 -8
25 35 53 82 53 50 0 60 16 18 26 -16 4 -71 17 -123 30 -109 28 -100 26 -100
17 0 -5 18 -18 40 -31 24 -14 42 -32 46 -48 11 -43 -6 -48 -91 -28 -105 25
-107 27 -85 93 23 68 46 91 99 98 54 7 52 19 -6 32 -27 6 -58 13 -70 17 -15 4
-24 1 -28 -7z"/>
<path d="M6814 4543 c3 -16 8 -50 12 -78 9 -65 18 -79 24 -35 5 33 7 35 47 38
60 4 79 -9 86 -60 4 -24 9 -57 13 -75 6 -29 3 -34 -36 -58 -49 -31 -84 -30
-88 3 -2 12 -8 22 -13 22 -6 0 -8 -8 -5 -17 3 -10 10 -52 16 -93 6 -41 13 -86
16 -99 l5 -24 27 32 c26 30 97 76 335 218 59 35 107 68 107 72 0 9 -50 23
-325 93 -125 31 -176 49 -193 65 -30 30 -35 29 -28 -4z m317 -126 l44 -13 -32
-17 c-18 -10 -49 -29 -70 -43 l-38 -26 -7 39 c-4 21 -7 49 -7 62 -1 21 2 23
32 17 18 -3 53 -12 78 -19z"/>
<path d="M840 3870 c0 -48 -10 -51 -161 -64 -79 -7 -178 -12 -219 -12 -72 1
-75 2 -88 29 -8 16 -16 26 -19 24 -8 -9 9 -247 18 -247 5 0 9 9 9 20 0 31 39
47 133 54 l87 7 0 -26 c0 -42 -18 -65 -67 -87 -24 -11 -43 -21 -41 -24 3 -2
62 -1 132 3 85 4 125 10 123 17 -2 6 -14 12 -28 14 -36 4 -68 33 -75 68 -6 30
-4 31 33 37 21 4 63 7 94 7 56 0 56 0 62 -34 10 -62 -3 -114 -35 -141 -16 -14
-38 -25 -49 -25 -10 0 -19 -5 -19 -11 0 -12 134 -8 146 4 9 9 -18 390 -28 402
-4 5 -8 -1 -8 -15z"/>
<path d="M7330 3605 c-8 -9 -26 -22 -40 -27 -26 -10 -43 -15 -285 -78 -202
-53 -195 -51 -195 -61 0 -6 7 -12 16 -16 9 -3 107 -61 218 -128 139 -85 205
-131 214 -150 8 -14 16 -24 19 -21 3 3 11 37 18 76 12 71 3 104 -15 56 -12
-32 -42 -34 -87 -6 -37 22 -38 27 -22 116 l11 63 54 11 c58 12 77 8 72 -18 -1
-10 2 -19 7 -22 9 -5 39 193 32 214 -2 4 -9 0 -17 -9z m-196 -247 c-6 -47 -24
-92 -24 -60 0 7 -4 12 -10 12 -14 0 -112 61 -107 67 7 7 100 30 125 32 22 1
22 -1 16 -51z"/>
<path d="M635 3383 c-85 -18 -158 -76 -193 -151 -20 -45 -24 -65 -19 -112 10
-109 56 -178 150 -225 144 -71 333 19 371 178 9 36 -10 141 -34 186 -48 94
-168 148 -275 124z m210 -137 c37 -16 65 -60 65 -102 0 -18 -12 -39 -38 -63
-71 -68 -273 -106 -353 -68 -59 29 -78 101 -39 149 56 72 274 122 365 84z"/>
<path d="M6736 3063 c-15 -60 -30 -114 -33 -120 -3 -7 2 -13 11 -13 9 0 16 8
16 19 0 10 7 22 16 25 16 6 274 -57 379 -92 45 -15 51 -21 56 -52 4 -23 8 -30
12 -20 14 31 64 220 59 224 -2 3 -14 -7 -26 -20 l-21 -26 -135 37 c-297 81
-285 77 -288 113 -2 18 -6 32 -10 32 -4 0 -20 -48 -36 -107z"/>
<path d="M993 2855 l2 -38 -199 -90 -199 -91 -23 28 c-21 23 -24 24 -24 8 0
-10 3 -22 7 -25 4 -4 23 -46 43 -94 39 -95 58 -114 56 -58 -1 35 0 36 77 70
43 19 82 35 87 35 18 0 10 -25 -24 -77 -18 -28 -50 -78 -70 -111 l-37 -59 28
-57 c15 -31 32 -56 38 -56 5 0 20 20 32 44 38 75 115 189 122 179 16 -24 59
-43 96 -43 57 0 108 37 123 89 17 56 8 92 -61 241 -19 41 -37 85 -41 97 -4 11
-13 27 -21 33 -12 10 -14 6 -12 -25z m77 -193 c16 -52 1 -86 -49 -112 -75 -38
-139 -18 -156 50 -5 23 0 27 77 59 46 19 87 38 92 42 14 13 24 2 36 -39z"/>
<path d="M6713 2797 c-50 -19 -72 -50 -140 -200 -59 -129 -74 -182 -37 -129 8
12 21 22 27 22 7 0 100 -40 207 -88 l195 -88 -3 -32 c-6 -56 12 -35 61 75 44
99 54 147 20 96 -9 -13 -21 -23 -29 -23 -26 0 -169 69 -169 82 0 9 34 19 105
30 58 10 119 20 136 23 26 5 34 14 54 60 23 54 24 71 5 68 -5 0 -64 -11 -130
-22 -66 -12 -121 -21 -122 -21 -2 0 -3 13 -3 30 0 42 -17 72 -53 97 -42 28
-84 35 -124 20z m74 -129 c43 -30 55 -64 36 -108 -7 -19 -15 -36 -18 -38 -2
-2 -46 15 -98 38 -104 45 -110 55 -60 105 34 33 93 34 140 3z"/>
<path d="M6476 2394 c-4 -9 -38 -67 -78 -128 -39 -61 -86 -135 -105 -165 -19
-29 -31 -57 -26 -61 4 -4 30 -21 58 -38 54 -33 78 -32 47 2 -36 39 -41 58 -27
100 8 21 17 42 22 47 7 7 313 -174 359 -212 11 -9 14 -22 9 -46 -3 -18 -2 -33
2 -33 8 0 126 186 131 208 5 19 -12 14 -26 -8 -7 -11 -19 -20 -28 -20 -9 0
-96 50 -195 112 l-178 112 17 29 c24 41 47 50 103 43 27 -4 49 -3 49 2 0 9
-101 72 -117 72 -6 0 -14 -7 -17 -16z"/>
<path d="M1255 2323 c13 -33 15 -48 8 -59 -13 -17 -308 -203 -342 -215 -38
-13 -61 1 -61 37 0 20 5 24 30 24 30 0 70 32 70 57 0 16 -36 53 -50 53 -27 0
-69 -32 -79 -61 -17 -50 -13 -82 18 -131 22 -34 40 -50 75 -63 42 -16 50 -16
84 -3 34 13 216 122 284 169 33 23 56 24 80 2 11 -10 18 -12 18 -4 0 17 -123
211 -133 211 -5 0 -6 -8 -2 -17z"/>
<path d="M1420 1888 c-372 -118 -372 -119 -385 -98 -3 6 -10 10 -16 10 -18 0
-9 -21 25 -58 19 -20 43 -48 55 -62 22 -26 28 -12 10 21 -14 26 7 51 56 66 40
13 44 10 100 -60 l38 -48 -21 -45 c-26 -53 -45 -63 -72 -39 -15 14 -20 15 -20
4 0 -15 124 -161 142 -168 6 -2 8 5 4 17 -5 15 24 80 100 229 59 114 113 217
120 228 17 24 18 45 2 44 -7 -1 -69 -19 -138 -41z m-56 -120 l-37 -73 -38 45
c-22 25 -39 48 -39 51 0 3 26 12 58 19 31 7 61 17 67 22 25 22 22 1 -11 -64z"/>
<path d="M6060 1831 c0 -5 29 -69 64 -143 151 -316 148 -310 143 -351 -3 -21
-2 -37 3 -35 15 6 113 119 107 124 -3 3 -17 -2 -31 -11 -24 -16 -26 -16 -50 9
-45 49 -43 73 11 130 26 28 49 53 50 55 4 7 77 -17 98 -33 18 -13 18 -17 6
-40 -8 -14 -12 -28 -10 -31 5 -5 159 159 159 169 0 4 -10 4 -22 1 -25 -6 -152
32 -376 114 -150 55 -152 56 -152 42z m236 -195 c21 -11 21 -12 -17 -56 -21
-24 -40 -42 -41 -40 -10 14 -58 120 -58 129 0 10 72 -11 116 -33z"/>
<path d="M1748 1680 c12 -12 22 -25 22 -30 0 -5 -46 -63 -102 -131 -57 -67
-116 -139 -133 -160 -33 -43 -67 -58 -90 -39 -9 7 -18 10 -21 7 -4 -3 6 -17
22 -30 199 -168 232 -187 321 -187 127 0 248 129 247 265 0 99 -33 142 -211
284 -52 42 -95 58 -55 21z m160 -160 c28 -42 28 -72 -3 -138 -26 -57 -123
-165 -167 -188 -55 -28 -138 -7 -138 34 0 9 37 60 81 112 44 52 103 123 132
158 28 34 56 61 61 59 6 -2 21 -18 34 -37z"/>
<path d="M5803 1560 c-46 -20 -233 -166 -233 -181 0 -6 9 -5 21 1 30 16 41 9
102 -67 30 -37 89 -110 131 -162 42 -52 76 -101 76 -109 0 -9 -7 -24 -17 -34
-10 -11 -12 -18 -4 -18 14 0 181 140 181 152 0 5 -11 1 -25 -8 -24 -16 -27
-16 -46 2 -12 11 -41 45 -66 76 l-44 58 45 46 c74 75 85 162 28 217 -26 25
-71 47 -95 47 -7 0 -31 -9 -54 -20z m45 -94 c29 -26 52 -68 52 -95 0 -11 -10
-32 -23 -46 l-22 -27 -67 83 -67 83 27 18 c31 20 66 15 100 -16z"/>
<path d="M2165 1262 c-98 -46 -154 -125 -163 -227 -9 -122 32 -196 141 -252
41 -21 66 -27 117 -27 78 0 129 23 183 83 51 57 69 96 75 167 8 104 -36 182
-137 241 -60 35 -159 42 -216 15z m236 -80 c38 -49 13 -150 -70 -276 -67 -104
-141 -130 -206 -73 -46 39 -33 145 29 249 84 140 183 180 247 100z"/>
<path d="M5154 1143 c2 -10 10 -125 17 -255 10 -208 9 -240 -4 -267 -9 -17
-11 -31 -6 -31 14 0 149 69 149 76 0 4 -16 3 -34 0 -28 -5 -37 -3 -44 11 -9
17 -16 62 -13 89 1 11 119 74 138 74 5 0 27 -18 48 -41 l40 -40 -24 -20 c-47
-38 -12 -30 90 22 102 51 103 53 71 60 -18 3 -43 15 -55 25 -40 35 -100 89
-156 140 -107 98 -199 174 -211 174 -6 0 -9 -8 -6 -17z m115 -222 l54 -49 -52
-27 c-29 -14 -54 -25 -56 -23 -5 6 -11 148 -5 148 3 -1 29 -23 59 -49z"/>
<path d="M2640 1094 c0 -5 11 -17 25 -29 l26 -20 -67 -195 c-37 -107 -71 -201
-77 -207 -5 -7 -22 -13 -38 -13 -53 0 -30 -15 74 -49 56 -19 108 -36 115 -38
6 -3 12 0 12 5 0 6 -9 13 -19 17 -11 3 -21 12 -24 19 -7 19 53 186 68 186 7 0
25 -53 46 -134 l33 -135 58 -21 c65 -24 82 -21 68 13 -10 23 -60 213 -60 228
0 5 9 9 21 9 53 0 119 71 119 129 0 51 -28 99 -74 126 -22 13 -93 41 -156 63
-63 22 -123 43 -132 47 -10 4 -18 3 -18 -1z m217 -111 c19 -9 38 -26 43 -37
12 -33 0 -88 -27 -123 -20 -28 -30 -33 -66 -33 -72 0 -74 5 -37 114 17 53 36
96 42 96 5 0 26 -7 45 -17z"/>
<path d="M4590 940 c-108 -36 -123 -44 -75 -41 11 1 25 -2 31 -6 6 -5 35 -86
63 -182 29 -95 57 -184 62 -198 11 -28 -4 -63 -26 -63 -8 0 -15 -7 -15 -14 0
-12 6 -13 28 -6 15 5 104 32 197 61 94 28 174 55 178 59 4 4 4 27 -2 51 -5 24
-13 61 -16 82 -9 58 -35 49 -35 -12 0 -71 -30 -109 -103 -134 -51 -17 -61 -17
-73 -5 -20 19 -125 357 -122 388 2 15 12 29 26 35 24 11 30 25 10 24 -7 0 -65
-18 -128 -39z"/>
<path d="M3310 880 c0 -5 9 -10 20 -10 27 0 43 -34 36 -78 -3 -20 -8 -71 -11
-112 -8 -110 -26 -264 -32 -272 -2 -5 -15 -8 -28 -8 -13 0 -26 -4 -29 -9 -3
-5 58 -14 137 -21 156 -14 197 -8 258 33 68 46 99 117 99 228 0 94 -35 161
-106 201 -52 29 -56 30 -291 53 -33 3 -53 1 -53 -5z m245 -54 c53 -23 78 -87
76 -196 -2 -83 -26 -163 -62 -201 -21 -23 -36 -29 -67 -29 -23 0 -42 5 -44 13
-4 9 26 415 31 425 3 6 35 1 66 -12z"/>
<path d="M4219 876 c-2 -2 -87 -10 -189 -16 -102 -7 -189 -16 -195 -21 -5 -5
-1 -9 11 -9 11 0 28 -6 37 -12 17 -14 20 -42 32 -263 3 -60 8 -121 11 -135 5
-29 -14 -60 -39 -64 -10 -1 -16 -6 -15 -12 3 -9 35 -8 183 7 50 5 115 9 145 9
30 0 61 4 67 8 16 10 30 162 16 162 -6 0 -13 -13 -16 -29 -4 -16 -22 -45 -40
-64 -35 -34 -71 -47 -133 -47 -43 0 -51 18 -56 121 -3 65 -1 74 15 77 29 6 64
-24 73 -63 15 -62 29 -39 27 43 -5 161 -23 231 -36 145 -8 -50 -33 -83 -61
-83 -21 0 -24 6 -29 68 -12 121 -13 119 36 125 83 12 150 -21 159 -76 2 -10 8
-18 13 -19 6 0 9 26 7 68 -3 63 -11 91 -23 80z"/>
</g>
</svg>
